<mxfile host="app.diagrams.net" agent="Mozilla/5.0 (Macintosh; Intel Mac OS X 10_15_7) AppleWebKit/537.36 (KHTML, like Gecko) Chrome/129.0.0.0 Safari/537.36" version="24.8.3">
  <diagram name="第 1 页" id="gEOt0XPJ3LvUmvyGPniG">
    <mxGraphModel dx="1485" dy="1586" grid="1" gridSize="10" guides="1" tooltips="1" connect="1" arrows="1" fold="1" page="1" pageScale="1" pageWidth="827" pageHeight="1169" math="0" shadow="0">
      <root>
        <mxCell id="0" />
        <mxCell id="1" parent="0" />
        <mxCell id="XGQdO2VJRoyWXTCaJZEM-1" value="" style="rounded=1;whiteSpace=wrap;html=1;strokeColor=#0ba289;align=center;verticalAlign=middle;fontFamily=Helvetica;fontSize=12;resizable=1;fillColor=#c6e9e3;shadow=0;glass=0;arcSize=4;dashed=1;dashPattern=1 1;" vertex="1" parent="1">
          <mxGeometry x="980" y="253.25" width="310" height="262" as="geometry" />
        </mxCell>
        <mxCell id="XGQdO2VJRoyWXTCaJZEM-2" value="" style="rounded=1;whiteSpace=wrap;html=1;align=center;verticalAlign=middle;fontFamily=Helvetica;fontSize=12;resizable=1;shadow=0;glass=0;arcSize=4;dashed=1;strokeWidth=2;" vertex="1" parent="1">
          <mxGeometry x="-190" y="665.25" width="361" height="410" as="geometry" />
        </mxCell>
        <mxCell id="XGQdO2VJRoyWXTCaJZEM-3" value="" style="rounded=1;whiteSpace=wrap;html=1;strokeColor=#999900;align=center;verticalAlign=middle;fontFamily=Helvetica;fontSize=12;resizable=1;fillColor=#ffffd9;shadow=0;glass=0;arcSize=4;dashed=1;dashPattern=1 1;" vertex="1" parent="1">
          <mxGeometry x="-570" y="810" width="380" height="400" as="geometry" />
        </mxCell>
        <mxCell id="XGQdO2VJRoyWXTCaJZEM-4" value="" style="endArrow=classic;html=1;rounded=0;exitX=0.5;exitY=0;exitDx=0;exitDy=0;entryX=0;entryY=0.5;entryDx=0;entryDy=0;edgeStyle=orthogonalEdgeStyle;" edge="1" parent="1" source="XGQdO2VJRoyWXTCaJZEM-59" target="XGQdO2VJRoyWXTCaJZEM-66">
          <mxGeometry relative="1" as="geometry">
            <mxPoint x="-310.03" y="1015" as="sourcePoint" />
            <mxPoint x="-254.03" y="845" as="targetPoint" />
          </mxGeometry>
        </mxCell>
        <mxCell id="XGQdO2VJRoyWXTCaJZEM-5" value="e&lt;sub&gt;i2&lt;/sub&gt;" style="edgeLabel;resizable=0;html=1;;align=center;verticalAlign=middle;" connectable="0" vertex="1" parent="XGQdO2VJRoyWXTCaJZEM-4">
          <mxGeometry relative="1" as="geometry">
            <mxPoint y="86" as="offset" />
          </mxGeometry>
        </mxCell>
        <mxCell id="XGQdO2VJRoyWXTCaJZEM-6" value="" style="endArrow=classic;html=1;rounded=0;exitX=0.5;exitY=0;exitDx=0;exitDy=0;entryX=0;entryY=0.5;entryDx=0;entryDy=0;edgeStyle=orthogonalEdgeStyle;" edge="1" parent="1" source="XGQdO2VJRoyWXTCaJZEM-58" target="XGQdO2VJRoyWXTCaJZEM-68">
          <mxGeometry relative="1" as="geometry">
            <mxPoint x="-440.03" y="944.47" as="sourcePoint" />
            <mxPoint x="-397.03" y="819.47" as="targetPoint" />
          </mxGeometry>
        </mxCell>
        <mxCell id="XGQdO2VJRoyWXTCaJZEM-7" value="e&lt;sub&gt;i2&lt;/sub&gt;" style="edgeLabel;resizable=0;html=1;;align=center;verticalAlign=middle;" connectable="0" vertex="1" parent="XGQdO2VJRoyWXTCaJZEM-6">
          <mxGeometry relative="1" as="geometry">
            <mxPoint y="74" as="offset" />
          </mxGeometry>
        </mxCell>
        <mxCell id="XGQdO2VJRoyWXTCaJZEM-8" style="edgeStyle=orthogonalEdgeStyle;rounded=0;orthogonalLoop=1;jettySize=auto;html=1;exitX=0.5;exitY=0;exitDx=0;exitDy=0;entryX=0.5;entryY=1;entryDx=0;entryDy=0;" edge="1" parent="1" source="XGQdO2VJRoyWXTCaJZEM-9" target="XGQdO2VJRoyWXTCaJZEM-11">
          <mxGeometry relative="1" as="geometry" />
        </mxCell>
        <mxCell id="XGQdO2VJRoyWXTCaJZEM-135" style="edgeStyle=orthogonalEdgeStyle;rounded=1;orthogonalLoop=1;jettySize=auto;html=1;entryX=0.75;entryY=1;entryDx=0;entryDy=0;fontFamily=Helvetica;fontSize=12;fontColor=default;resizable=1;curved=0;strokeColor=default;" edge="1" parent="1" target="XGQdO2VJRoyWXTCaJZEM-30">
          <mxGeometry relative="1" as="geometry">
            <mxPoint x="230" y="450" as="sourcePoint" />
            <Array as="points">
              <mxPoint x="230" y="450" />
              <mxPoint x="118" y="450" />
            </Array>
          </mxGeometry>
        </mxCell>
        <mxCell id="XGQdO2VJRoyWXTCaJZEM-145" style="edgeStyle=orthogonalEdgeStyle;rounded=0;orthogonalLoop=1;jettySize=auto;html=1;exitX=1;exitY=0.5;exitDx=0;exitDy=0;entryX=0;entryY=0.5;entryDx=0;entryDy=0;fontFamily=Helvetica;fontSize=12;fontColor=default;resizable=1;" edge="1" parent="1" source="XGQdO2VJRoyWXTCaJZEM-9" target="XGQdO2VJRoyWXTCaJZEM-144">
          <mxGeometry relative="1" as="geometry" />
        </mxCell>
        <mxCell id="XGQdO2VJRoyWXTCaJZEM-9" value="MLP" style="rounded=1;whiteSpace=wrap;html=1;fillColor=#ffffd9;" vertex="1" parent="1">
          <mxGeometry x="200" y="475" width="60" height="30" as="geometry" />
        </mxCell>
        <mxCell id="XGQdO2VJRoyWXTCaJZEM-10" style="edgeStyle=orthogonalEdgeStyle;rounded=0;orthogonalLoop=1;jettySize=auto;html=1;exitX=0.5;exitY=0;exitDx=0;exitDy=0;entryX=0.5;entryY=1;entryDx=0;entryDy=0;" edge="1" parent="1" source="XGQdO2VJRoyWXTCaJZEM-11" target="XGQdO2VJRoyWXTCaJZEM-16">
          <mxGeometry relative="1" as="geometry">
            <mxPoint x="230" y="363" as="targetPoint" />
          </mxGeometry>
        </mxCell>
        <mxCell id="XGQdO2VJRoyWXTCaJZEM-11" value="GRU" style="rounded=1;whiteSpace=wrap;html=1;" vertex="1" parent="1">
          <mxGeometry x="200.4" y="377.25" width="60" height="30" as="geometry" />
        </mxCell>
        <mxCell id="XGQdO2VJRoyWXTCaJZEM-12" value="" style="endArrow=classic;html=1;rounded=0;entryX=0.5;entryY=1;entryDx=0;entryDy=0;" edge="1" parent="1" source="XGQdO2VJRoyWXTCaJZEM-14" target="XGQdO2VJRoyWXTCaJZEM-9">
          <mxGeometry width="50" height="50" relative="1" as="geometry">
            <mxPoint x="230" y="600" as="sourcePoint" />
            <mxPoint x="280" y="550" as="targetPoint" />
            <Array as="points">
              <mxPoint x="230" y="540" />
            </Array>
          </mxGeometry>
        </mxCell>
        <mxCell id="XGQdO2VJRoyWXTCaJZEM-14" value="o&lt;sub&gt;i&lt;/sub&gt;&lt;sup&gt;t&lt;/sup&gt;,a&lt;sub&gt;i&lt;/sub&gt;&lt;sup&gt;t-1&lt;/sup&gt;" style="text;html=1;align=center;verticalAlign=middle;whiteSpace=wrap;rounded=1;fillColor=none;strokeColor=#9673a6;" vertex="1" parent="1">
          <mxGeometry x="195" y="561" width="70" height="30" as="geometry" />
        </mxCell>
        <mxCell id="XGQdO2VJRoyWXTCaJZEM-15" style="edgeStyle=orthogonalEdgeStyle;rounded=0;orthogonalLoop=1;jettySize=auto;html=1;exitX=0.5;exitY=0;exitDx=0;exitDy=0;entryX=0.5;entryY=1;entryDx=0;entryDy=0;fontFamily=Helvetica;fontSize=12;fontColor=default;resizable=1;" edge="1" parent="1" source="XGQdO2VJRoyWXTCaJZEM-16">
          <mxGeometry relative="1" as="geometry">
            <mxPoint x="230" y="238" as="targetPoint" />
          </mxGeometry>
        </mxCell>
        <mxCell id="XGQdO2VJRoyWXTCaJZEM-16" value="MLP" style="rounded=1;whiteSpace=wrap;html=1;fillColor=#ffffd9;" vertex="1" parent="1">
          <mxGeometry x="200" y="291.99" width="60" height="30" as="geometry" />
        </mxCell>
        <mxCell id="XGQdO2VJRoyWXTCaJZEM-17" style="edgeStyle=orthogonalEdgeStyle;rounded=0;orthogonalLoop=1;jettySize=auto;html=1;exitX=0.5;exitY=0;exitDx=0;exitDy=0;" edge="1" parent="1" source="XGQdO2VJRoyWXTCaJZEM-18" target="XGQdO2VJRoyWXTCaJZEM-19">
          <mxGeometry relative="1" as="geometry" />
        </mxCell>
        <mxCell id="XGQdO2VJRoyWXTCaJZEM-18" value="Mixing Network" style="rounded=1;whiteSpace=wrap;html=1;" vertex="1" parent="1">
          <mxGeometry x="170" y="8" width="120" height="40" as="geometry" />
        </mxCell>
        <mxCell id="XGQdO2VJRoyWXTCaJZEM-19" value="Qtot(o,a)" style="rounded=1;whiteSpace=wrap;html=1;" vertex="1" parent="1">
          <mxGeometry x="185" y="-55" width="90" height="30" as="geometry" />
        </mxCell>
        <mxCell id="XGQdO2VJRoyWXTCaJZEM-20" value="" style="endArrow=classic;html=1;rounded=0;entryX=0;entryY=0.5;entryDx=0;entryDy=0;exitX=1;exitY=0.5;exitDx=0;exitDy=0;" edge="1" parent="1" target="XGQdO2VJRoyWXTCaJZEM-11">
          <mxGeometry width="50" height="50" relative="1" as="geometry">
            <mxPoint x="180.4" y="392.25" as="sourcePoint" />
            <mxPoint x="200.4" y="392.25" as="targetPoint" />
            <Array as="points">
              <mxPoint x="160.4" y="392.25" />
              <mxPoint x="180.4" y="392.25" />
            </Array>
          </mxGeometry>
        </mxCell>
        <mxCell id="XGQdO2VJRoyWXTCaJZEM-23" style="edgeStyle=orthogonalEdgeStyle;rounded=0;orthogonalLoop=1;jettySize=auto;html=1;exitX=0.5;exitY=0;exitDx=0;exitDy=0;entryX=0.5;entryY=1;entryDx=0;entryDy=0;endArrow=classicThin;endFill=1;" edge="1" parent="1" source="XGQdO2VJRoyWXTCaJZEM-24" target="XGQdO2VJRoyWXTCaJZEM-41">
          <mxGeometry relative="1" as="geometry" />
        </mxCell>
        <mxCell id="XGQdO2VJRoyWXTCaJZEM-24" value="τ&lt;sub&gt;i&lt;/sub&gt;" style="text;html=1;align=center;verticalAlign=middle;whiteSpace=wrap;rounded=1;fillColor=none;strokeColor=#9673a6;" vertex="1" parent="1">
          <mxGeometry x="-541" y="1225" width="34.75" height="30" as="geometry" />
        </mxCell>
        <mxCell id="XGQdO2VJRoyWXTCaJZEM-26" value="Message&lt;br&gt;Sending&lt;br&gt;Module" style="rounded=1;whiteSpace=wrap;html=1;fillColor=#bfd9ea;strokeColor=#1a7bb7;" vertex="1" parent="1">
          <mxGeometry x="420" y="635.25" width="94" height="50" as="geometry" />
        </mxCell>
        <mxCell id="XGQdO2VJRoyWXTCaJZEM-142" style="edgeStyle=orthogonalEdgeStyle;rounded=1;orthogonalLoop=1;jettySize=auto;html=1;exitX=0.5;exitY=0;exitDx=0;exitDy=0;entryX=0;entryY=0.5;entryDx=0;entryDy=0;fontFamily=Helvetica;fontSize=12;fontColor=default;resizable=1;curved=0;" edge="1" parent="1" source="XGQdO2VJRoyWXTCaJZEM-30" target="XGQdO2VJRoyWXTCaJZEM-115">
          <mxGeometry relative="1" as="geometry" />
        </mxCell>
        <mxCell id="XGQdO2VJRoyWXTCaJZEM-30" value="Message&lt;br&gt;Receving&lt;br&gt;Module" style="rounded=1;whiteSpace=wrap;html=1;fillColor=#ffffd9;strokeColor=#cbcb34;" vertex="1" parent="1">
          <mxGeometry x="50" y="351.75" width="90" height="50" as="geometry" />
        </mxCell>
        <mxCell id="XGQdO2VJRoyWXTCaJZEM-31" value="Q&lt;sup&gt;i&lt;/sup&gt;&lt;sub&gt;c&lt;/sub&gt;" style="text;html=1;align=center;verticalAlign=middle;whiteSpace=wrap;rounded=0;" vertex="1" parent="1">
          <mxGeometry x="140" y="203" width="60" height="30" as="geometry" />
        </mxCell>
        <mxCell id="XGQdO2VJRoyWXTCaJZEM-33" style="edgeStyle=orthogonalEdgeStyle;rounded=0;orthogonalLoop=1;jettySize=auto;html=1;exitX=0.5;exitY=0;exitDx=0;exitDy=0;entryX=0.5;entryY=1;entryDx=0;entryDy=0;fontFamily=Helvetica;fontSize=12;fontColor=default;resizable=1;" edge="1" parent="1" target="XGQdO2VJRoyWXTCaJZEM-94">
          <mxGeometry relative="1" as="geometry">
            <mxPoint x="230" y="218" as="sourcePoint" />
          </mxGeometry>
        </mxCell>
        <mxCell id="XGQdO2VJRoyWXTCaJZEM-34" value="Q&lt;sup&gt;i&lt;/sup&gt;&lt;sub&gt;l&lt;/sub&gt;" style="text;html=1;align=center;verticalAlign=middle;whiteSpace=wrap;rounded=0;" vertex="1" parent="1">
          <mxGeometry x="205" y="260" width="25" height="30" as="geometry" />
        </mxCell>
        <mxCell id="XGQdO2VJRoyWXTCaJZEM-138" style="edgeStyle=orthogonalEdgeStyle;rounded=0;orthogonalLoop=1;jettySize=auto;html=1;exitX=0.5;exitY=0;exitDx=0;exitDy=0;entryX=0.25;entryY=1;entryDx=0;entryDy=0;fontFamily=Helvetica;fontSize=12;fontColor=default;resizable=1;" edge="1" parent="1" source="XGQdO2VJRoyWXTCaJZEM-36" target="XGQdO2VJRoyWXTCaJZEM-30">
          <mxGeometry relative="1" as="geometry" />
        </mxCell>
        <mxCell id="XGQdO2VJRoyWXTCaJZEM-36" value="z&lt;sub&gt;i-&lt;/sub&gt;" style="text;html=1;align=center;verticalAlign=middle;whiteSpace=wrap;rounded=1;fillColor=none;strokeColor=#9673a6;" vertex="1" parent="1">
          <mxGeometry x="47" y="560" width="51" height="31" as="geometry" />
        </mxCell>
        <mxCell id="XGQdO2VJRoyWXTCaJZEM-37" value="m&lt;sub&gt;i·&lt;/sub&gt;&lt;sup&gt;t&lt;/sup&gt;" style="text;html=1;align=center;verticalAlign=middle;whiteSpace=wrap;rounded=0;" vertex="1" parent="1">
          <mxGeometry x="330" y="605.25" width="30" height="30" as="geometry" />
        </mxCell>
        <mxCell id="XGQdO2VJRoyWXTCaJZEM-38" value="Inference" style="text;html=1;align=center;verticalAlign=middle;whiteSpace=wrap;rounded=0;" vertex="1" parent="1">
          <mxGeometry x="-50" y="355.99" width="50" height="20" as="geometry" />
        </mxCell>
        <mxCell id="XGQdO2VJRoyWXTCaJZEM-40" style="edgeStyle=orthogonalEdgeStyle;rounded=0;orthogonalLoop=1;jettySize=auto;html=1;exitX=0.5;exitY=0;exitDx=0;exitDy=0;entryX=0.5;entryY=1;entryDx=0;entryDy=0;" edge="1" parent="1" source="XGQdO2VJRoyWXTCaJZEM-41" target="XGQdO2VJRoyWXTCaJZEM-57">
          <mxGeometry relative="1" as="geometry" />
        </mxCell>
        <mxCell id="XGQdO2VJRoyWXTCaJZEM-41" value="Wτ&lt;sub&gt;i&lt;/sub&gt;||Wm&lt;sub&gt;1i&lt;/sub&gt;" style="rounded=1;whiteSpace=wrap;html=1;" vertex="1" parent="1">
          <mxGeometry x="-560" y="1135" width="73" height="30" as="geometry" />
        </mxCell>
        <mxCell id="XGQdO2VJRoyWXTCaJZEM-42" style="edgeStyle=orthogonalEdgeStyle;rounded=0;orthogonalLoop=1;jettySize=auto;html=1;exitX=0.5;exitY=0;exitDx=0;exitDy=0;entryX=0.5;entryY=1;entryDx=0;entryDy=0;" edge="1" parent="1" source="XGQdO2VJRoyWXTCaJZEM-43" target="XGQdO2VJRoyWXTCaJZEM-58">
          <mxGeometry relative="1" as="geometry" />
        </mxCell>
        <mxCell id="XGQdO2VJRoyWXTCaJZEM-43" value="Wτ&lt;sub&gt;i&lt;/sub&gt;||Wm&lt;sub&gt;2i&lt;/sub&gt;" style="rounded=1;whiteSpace=wrap;html=1;" vertex="1" parent="1">
          <mxGeometry x="-453" y="1135" width="73" height="30" as="geometry" />
        </mxCell>
        <mxCell id="XGQdO2VJRoyWXTCaJZEM-44" style="edgeStyle=orthogonalEdgeStyle;rounded=0;orthogonalLoop=1;jettySize=auto;html=1;exitX=0.5;exitY=0;exitDx=0;exitDy=0;entryX=0.5;entryY=1;entryDx=0;entryDy=0;" edge="1" parent="1" source="XGQdO2VJRoyWXTCaJZEM-45" target="XGQdO2VJRoyWXTCaJZEM-59">
          <mxGeometry relative="1" as="geometry" />
        </mxCell>
        <mxCell id="XGQdO2VJRoyWXTCaJZEM-45" value="Wτ&lt;sub&gt;i&lt;/sub&gt;||Wm&lt;sub&gt;ni&lt;/sub&gt;" style="rounded=1;whiteSpace=wrap;html=1;" vertex="1" parent="1">
          <mxGeometry x="-310" y="1135" width="73" height="30" as="geometry" />
        </mxCell>
        <mxCell id="XGQdO2VJRoyWXTCaJZEM-46" value="···" style="text;html=1;align=center;verticalAlign=middle;whiteSpace=wrap;rounded=0;" vertex="1" parent="1">
          <mxGeometry x="-370" y="1140" width="60" height="20" as="geometry" />
        </mxCell>
        <mxCell id="XGQdO2VJRoyWXTCaJZEM-47" style="rounded=0;orthogonalLoop=1;jettySize=auto;html=1;exitX=0.5;exitY=0;exitDx=0;exitDy=0;entryX=0.5;entryY=1;entryDx=0;entryDy=0;endArrow=classicThin;endFill=1;" edge="1" parent="1" source="XGQdO2VJRoyWXTCaJZEM-48" target="XGQdO2VJRoyWXTCaJZEM-41">
          <mxGeometry relative="1" as="geometry" />
        </mxCell>
        <mxCell id="XGQdO2VJRoyWXTCaJZEM-48" value="m&lt;sub&gt;1i&lt;/sub&gt;" style="text;html=1;align=center;verticalAlign=middle;whiteSpace=wrap;rounded=1;fillColor=none;strokeColor=#9673a6;" vertex="1" parent="1">
          <mxGeometry x="-490" y="1225" width="40" height="30" as="geometry" />
        </mxCell>
        <mxCell id="XGQdO2VJRoyWXTCaJZEM-49" value="m&lt;sub&gt;2i&lt;/sub&gt;" style="text;html=1;align=center;verticalAlign=middle;whiteSpace=wrap;rounded=1;fillColor=none;strokeColor=#9673a6;" vertex="1" parent="1">
          <mxGeometry x="-370" y="1225" width="40" height="30" as="geometry" />
        </mxCell>
        <mxCell id="XGQdO2VJRoyWXTCaJZEM-50" value="···" style="text;html=1;align=center;verticalAlign=middle;whiteSpace=wrap;rounded=0;fillColor=none;strokeColor=none;" vertex="1" parent="1">
          <mxGeometry x="-310" y="1230" width="60" height="20" as="geometry" />
        </mxCell>
        <mxCell id="XGQdO2VJRoyWXTCaJZEM-51" style="edgeStyle=orthogonalEdgeStyle;rounded=0;orthogonalLoop=1;jettySize=auto;html=1;exitX=0.5;exitY=0;exitDx=0;exitDy=0;entryX=0.5;entryY=1;entryDx=0;entryDy=0;fontFamily=Helvetica;fontSize=12;fontColor=default;resizable=1;dashed=1;dashPattern=1 2;" edge="1" parent="1" source="XGQdO2VJRoyWXTCaJZEM-52" target="XGQdO2VJRoyWXTCaJZEM-66">
          <mxGeometry relative="1" as="geometry" />
        </mxCell>
        <mxCell id="XGQdO2VJRoyWXTCaJZEM-52" value="m&lt;sub&gt;ni&lt;/sub&gt;" style="text;html=1;align=center;verticalAlign=middle;whiteSpace=wrap;rounded=1;fillColor=none;strokeColor=#9673a6;" vertex="1" parent="1">
          <mxGeometry x="-230" y="1225" width="40" height="30" as="geometry" />
        </mxCell>
        <mxCell id="XGQdO2VJRoyWXTCaJZEM-53" style="rounded=0;orthogonalLoop=1;jettySize=auto;html=1;exitX=0.5;exitY=0;exitDx=0;exitDy=0;entryX=0.5;entryY=1;entryDx=0;entryDy=0;endArrow=classicThin;endFill=1;" edge="1" parent="1" source="XGQdO2VJRoyWXTCaJZEM-24" target="XGQdO2VJRoyWXTCaJZEM-43">
          <mxGeometry relative="1" as="geometry">
            <mxPoint x="-440" y="1220" as="sourcePoint" />
            <mxPoint x="-440" y="1185" as="targetPoint" />
          </mxGeometry>
        </mxCell>
        <mxCell id="XGQdO2VJRoyWXTCaJZEM-54" style="rounded=0;orthogonalLoop=1;jettySize=auto;html=1;exitX=0.5;exitY=0;exitDx=0;exitDy=0;entryX=0.5;entryY=1;entryDx=0;entryDy=0;endArrow=classicThin;endFill=1;" edge="1" parent="1" source="XGQdO2VJRoyWXTCaJZEM-24" target="XGQdO2VJRoyWXTCaJZEM-45">
          <mxGeometry relative="1" as="geometry">
            <mxPoint x="-513" y="1210" as="sourcePoint" />
            <mxPoint x="-406" y="1175" as="targetPoint" />
          </mxGeometry>
        </mxCell>
        <mxCell id="XGQdO2VJRoyWXTCaJZEM-55" style="rounded=0;orthogonalLoop=1;jettySize=auto;html=1;entryX=0.5;entryY=1;entryDx=0;entryDy=0;endArrow=classicThin;endFill=1;exitX=0.5;exitY=0;exitDx=0;exitDy=0;" edge="1" parent="1" source="XGQdO2VJRoyWXTCaJZEM-52" target="XGQdO2VJRoyWXTCaJZEM-45">
          <mxGeometry relative="1" as="geometry">
            <mxPoint x="-175" y="1310" as="sourcePoint" />
            <mxPoint x="-428.5" y="1220" as="targetPoint" />
          </mxGeometry>
        </mxCell>
        <mxCell id="XGQdO2VJRoyWXTCaJZEM-56" style="rounded=0;orthogonalLoop=1;jettySize=auto;html=1;exitX=0.5;exitY=0;exitDx=0;exitDy=0;entryX=0.5;entryY=1;entryDx=0;entryDy=0;endArrow=classicThin;endFill=1;" edge="1" parent="1" source="XGQdO2VJRoyWXTCaJZEM-49" target="XGQdO2VJRoyWXTCaJZEM-43">
          <mxGeometry relative="1" as="geometry">
            <mxPoint x="-367" y="1245" as="sourcePoint" />
            <mxPoint x="-420" y="1210" as="targetPoint" />
          </mxGeometry>
        </mxCell>
        <mxCell id="XGQdO2VJRoyWXTCaJZEM-57" value="MLP" style="rounded=1;whiteSpace=wrap;html=1;" vertex="1" parent="1">
          <mxGeometry x="-543.5" y="1065" width="40" height="20" as="geometry" />
        </mxCell>
        <mxCell id="XGQdO2VJRoyWXTCaJZEM-58" value="MLP" style="rounded=1;whiteSpace=wrap;html=1;" vertex="1" parent="1">
          <mxGeometry x="-436.5" y="1065" width="40" height="20" as="geometry" />
        </mxCell>
        <mxCell id="XGQdO2VJRoyWXTCaJZEM-59" value="MLP" style="rounded=1;whiteSpace=wrap;html=1;" vertex="1" parent="1">
          <mxGeometry x="-293.5" y="1065" width="40" height="20" as="geometry" />
        </mxCell>
        <mxCell id="XGQdO2VJRoyWXTCaJZEM-60" value="" style="endArrow=classic;html=1;rounded=0;exitX=0.5;exitY=0;exitDx=0;exitDy=0;entryX=0;entryY=0.5;entryDx=0;entryDy=0;edgeStyle=orthogonalEdgeStyle;" edge="1" parent="1" source="XGQdO2VJRoyWXTCaJZEM-57" target="XGQdO2VJRoyWXTCaJZEM-64">
          <mxGeometry relative="1" as="geometry">
            <mxPoint x="-610" y="1040.42" as="sourcePoint" />
            <mxPoint x="-569.8" y="915" as="targetPoint" />
          </mxGeometry>
        </mxCell>
        <mxCell id="XGQdO2VJRoyWXTCaJZEM-61" value="e&lt;sub&gt;i1&lt;/sub&gt;" style="edgeLabel;resizable=0;html=1;;align=center;verticalAlign=middle;" connectable="0" vertex="1" parent="XGQdO2VJRoyWXTCaJZEM-60">
          <mxGeometry relative="1" as="geometry">
            <mxPoint y="44" as="offset" />
          </mxGeometry>
        </mxCell>
        <mxCell id="XGQdO2VJRoyWXTCaJZEM-62" value="Softmax" style="rounded=1;whiteSpace=wrap;html=1;" vertex="1" parent="1">
          <mxGeometry x="-560" y="985" width="330" height="20" as="geometry" />
        </mxCell>
        <mxCell id="XGQdO2VJRoyWXTCaJZEM-63" style="edgeStyle=orthogonalEdgeStyle;rounded=0;orthogonalLoop=1;jettySize=auto;html=1;exitX=0.5;exitY=0;exitDx=0;exitDy=0;fontFamily=Helvetica;fontSize=12;fontColor=default;resizable=1;entryX=0.5;entryY=1;entryDx=0;entryDy=0;" edge="1" parent="1" target="XGQdO2VJRoyWXTCaJZEM-73">
          <mxGeometry relative="1" as="geometry">
            <mxPoint x="-470" y="933" as="sourcePoint" />
            <mxPoint x="-350" y="793" as="targetPoint" />
            <Array as="points">
              <mxPoint x="-470" y="823" />
              <mxPoint x="-350" y="823" />
            </Array>
          </mxGeometry>
        </mxCell>
        <mxCell id="XGQdO2VJRoyWXTCaJZEM-64" value="·" style="rhombus;whiteSpace=wrap;html=1;movable=1;resizable=1;rotatable=1;deletable=1;editable=1;locked=0;connectable=1;container=0;" vertex="1" parent="1">
          <mxGeometry x="-480" y="930" width="20" height="20" as="geometry">
            <mxRectangle x="-310" y="265" width="40" height="30" as="alternateBounds" />
          </mxGeometry>
        </mxCell>
        <mxCell id="XGQdO2VJRoyWXTCaJZEM-65" style="edgeStyle=orthogonalEdgeStyle;rounded=0;orthogonalLoop=1;jettySize=auto;html=1;exitX=0.5;exitY=0;exitDx=0;exitDy=0;entryX=0.5;entryY=1;entryDx=0;entryDy=0;fontFamily=Helvetica;fontSize=12;fontColor=default;resizable=1;" edge="1" parent="1" source="XGQdO2VJRoyWXTCaJZEM-66" target="XGQdO2VJRoyWXTCaJZEM-73">
          <mxGeometry relative="1" as="geometry" />
        </mxCell>
        <mxCell id="XGQdO2VJRoyWXTCaJZEM-66" value="·" style="rhombus;whiteSpace=wrap;html=1;movable=1;resizable=1;rotatable=1;deletable=1;editable=1;locked=0;connectable=1;container=0;" vertex="1" parent="1">
          <mxGeometry x="-220" y="855" width="20" height="20" as="geometry">
            <mxRectangle x="-310" y="265" width="40" height="30" as="alternateBounds" />
          </mxGeometry>
        </mxCell>
        <mxCell id="XGQdO2VJRoyWXTCaJZEM-67" style="edgeStyle=orthogonalEdgeStyle;rounded=0;orthogonalLoop=1;jettySize=auto;html=1;exitX=0.5;exitY=0;exitDx=0;exitDy=0;entryX=0.5;entryY=1;entryDx=0;entryDy=0;fontFamily=Helvetica;fontSize=12;fontColor=default;resizable=1;" edge="1" parent="1" source="XGQdO2VJRoyWXTCaJZEM-68" target="XGQdO2VJRoyWXTCaJZEM-73">
          <mxGeometry relative="1" as="geometry" />
        </mxCell>
        <mxCell id="XGQdO2VJRoyWXTCaJZEM-68" value="·" style="rhombus;whiteSpace=wrap;html=1;movable=1;resizable=1;rotatable=1;deletable=1;editable=1;locked=0;connectable=1;container=0;" vertex="1" parent="1">
          <mxGeometry x="-360" y="885" width="20" height="20" as="geometry">
            <mxRectangle x="-310" y="265" width="40" height="30" as="alternateBounds" />
          </mxGeometry>
        </mxCell>
        <mxCell id="XGQdO2VJRoyWXTCaJZEM-69" style="edgeStyle=orthogonalEdgeStyle;rounded=0;orthogonalLoop=1;jettySize=auto;html=1;exitX=0.5;exitY=0;exitDx=0;exitDy=0;entryX=0.5;entryY=1;entryDx=0;entryDy=0;fontFamily=Helvetica;fontSize=12;fontColor=default;resizable=1;dashed=1;dashPattern=1 2;" edge="1" parent="1" source="XGQdO2VJRoyWXTCaJZEM-48" target="XGQdO2VJRoyWXTCaJZEM-64">
          <mxGeometry relative="1" as="geometry" />
        </mxCell>
        <mxCell id="XGQdO2VJRoyWXTCaJZEM-70" style="edgeStyle=orthogonalEdgeStyle;rounded=0;orthogonalLoop=1;jettySize=auto;html=1;exitX=0.5;exitY=0;exitDx=0;exitDy=0;fontFamily=Helvetica;fontSize=12;fontColor=default;resizable=1;entryX=0.5;entryY=1;entryDx=0;entryDy=0;dashed=1;dashPattern=1 2;" edge="1" parent="1" source="XGQdO2VJRoyWXTCaJZEM-49" target="XGQdO2VJRoyWXTCaJZEM-68">
          <mxGeometry relative="1" as="geometry">
            <mxPoint x="-349.7647058823529" y="945" as="targetPoint" />
          </mxGeometry>
        </mxCell>
        <mxCell id="XGQdO2VJRoyWXTCaJZEM-71" value="···" style="text;html=1;align=center;verticalAlign=middle;whiteSpace=wrap;rounded=0;" vertex="1" parent="1">
          <mxGeometry x="-353.5" y="1015" width="60" height="20" as="geometry" />
        </mxCell>
        <mxCell id="XGQdO2VJRoyWXTCaJZEM-73" value="Q&lt;sup&gt;i&lt;/sup&gt;&lt;sub&gt;c&lt;/sub&gt;" style="text;html=1;align=center;verticalAlign=middle;whiteSpace=wrap;rounded=0;" vertex="1" parent="1">
          <mxGeometry x="-371.75" y="770" width="43.5" height="20" as="geometry" />
        </mxCell>
        <mxCell id="XGQdO2VJRoyWXTCaJZEM-77" value="" style="rounded=1;whiteSpace=wrap;html=1;strokeColor=#5e40f2;align=center;verticalAlign=middle;fontFamily=Helvetica;fontSize=12;resizable=1;fillColor=#dedbec;shadow=0;glass=0;arcSize=4;dashed=1;dashPattern=1 1;" vertex="1" parent="1">
          <mxGeometry x="1098.8" y="615.5" width="140" height="370" as="geometry" />
        </mxCell>
        <mxCell id="XGQdO2VJRoyWXTCaJZEM-78" style="edgeStyle=orthogonalEdgeStyle;rounded=0;orthogonalLoop=1;jettySize=auto;html=1;exitX=0.5;exitY=0;exitDx=0;exitDy=0;entryX=0.5;entryY=1;entryDx=0;entryDy=0;fontFamily=Helvetica;fontSize=12;fontColor=default;resizable=1;" edge="1" parent="1" source="XGQdO2VJRoyWXTCaJZEM-79" target="XGQdO2VJRoyWXTCaJZEM-101">
          <mxGeometry relative="1" as="geometry" />
        </mxCell>
        <mxCell id="XGQdO2VJRoyWXTCaJZEM-79" value="o&lt;sub&gt;k&lt;/sub&gt;&lt;sup&gt;t&lt;/sup&gt;,a&lt;sub&gt;k&lt;/sub&gt;&lt;sup&gt;t-1&lt;/sup&gt;,m&lt;sub&gt;·k&lt;/sub&gt;&lt;sup&gt;t-1&lt;/sup&gt;" style="text;html=1;align=center;verticalAlign=middle;whiteSpace=wrap;rounded=1;fillColor=none;strokeColor=#9673a6;" vertex="1" parent="1">
          <mxGeometry x="1135.3" y="1013.5" width="85" height="30" as="geometry" />
        </mxCell>
        <mxCell id="XGQdO2VJRoyWXTCaJZEM-80" value="m&lt;sub&gt;k·&lt;/sub&gt;&lt;sup&gt;t&lt;/sup&gt;" style="text;html=1;align=center;verticalAlign=middle;whiteSpace=wrap;rounded=0;" vertex="1" parent="1">
          <mxGeometry x="1247.2" y="785.5" width="30" height="30" as="geometry" />
        </mxCell>
        <mxCell id="XGQdO2VJRoyWXTCaJZEM-81" value="m&lt;sub&gt;·k&lt;/sub&gt;&lt;sup&gt;t&lt;/sup&gt;" style="text;html=1;align=center;verticalAlign=middle;whiteSpace=wrap;rounded=0;" vertex="1" parent="1">
          <mxGeometry x="1050" y="655.49" width="40" height="20" as="geometry" />
        </mxCell>
        <mxCell id="XGQdO2VJRoyWXTCaJZEM-82" value="" style="endArrow=classic;html=1;rounded=0;fontFamily=Helvetica;fontSize=12;fontColor=default;resizable=1;entryX=-0.003;entryY=0.22;entryDx=0;entryDy=0;entryPerimeter=0;" edge="1" parent="1">
          <mxGeometry width="50" height="50" relative="1" as="geometry">
            <mxPoint x="1050" y="676.9" as="sourcePoint" />
            <mxPoint x="1098.8000000000002" y="677.0999999999998" as="targetPoint" />
          </mxGeometry>
        </mxCell>
        <mxCell id="XGQdO2VJRoyWXTCaJZEM-83" value="" style="endArrow=classic;html=1;rounded=0;fontFamily=Helvetica;fontSize=12;fontColor=default;resizable=1;entryX=-0.003;entryY=0.22;entryDx=0;entryDy=0;entryPerimeter=0;" edge="1" parent="1">
          <mxGeometry width="50" height="50" relative="1" as="geometry">
            <mxPoint x="1237.8" y="811.91" as="sourcePoint" />
            <mxPoint x="1286.6000000000001" y="812.1099999999998" as="targetPoint" />
          </mxGeometry>
        </mxCell>
        <mxCell id="XGQdO2VJRoyWXTCaJZEM-84" value="Agent i" style="text;html=1;align=center;verticalAlign=middle;whiteSpace=wrap;rounded=0;fontFamily=Helvetica;fontSize=12;fontColor=default;resizable=1;" vertex="1" parent="1">
          <mxGeometry x="270" y="190" width="60" height="30" as="geometry" />
        </mxCell>
        <mxCell id="XGQdO2VJRoyWXTCaJZEM-85" style="edgeStyle=orthogonalEdgeStyle;rounded=0;orthogonalLoop=1;jettySize=auto;html=1;exitX=0.5;exitY=0;exitDx=0;exitDy=0;entryX=0.5;entryY=1;entryDx=0;entryDy=0;fontFamily=Helvetica;fontSize=12;fontColor=default;resizable=1;" edge="1" parent="1" source="XGQdO2VJRoyWXTCaJZEM-86" target="XGQdO2VJRoyWXTCaJZEM-98">
          <mxGeometry relative="1" as="geometry" />
        </mxCell>
        <mxCell id="XGQdO2VJRoyWXTCaJZEM-86" value="Agent j" style="rounded=1;whiteSpace=wrap;html=1;strokeColor=#5e40f2;align=center;verticalAlign=middle;fontFamily=Helvetica;fontSize=12;resizable=1;fillColor=#dedbec;shadow=0;glass=0;arcSize=4;dashed=1;dashPattern=1 1;" vertex="1" parent="1">
          <mxGeometry x="-720" y="163" width="120" height="370" as="geometry" />
        </mxCell>
        <mxCell id="XGQdO2VJRoyWXTCaJZEM-87" style="edgeStyle=orthogonalEdgeStyle;rounded=0;orthogonalLoop=1;jettySize=auto;html=1;exitX=0.5;exitY=0;exitDx=0;exitDy=0;entryX=0.5;entryY=1;entryDx=0;entryDy=0;fontFamily=Helvetica;fontSize=12;fontColor=default;resizable=1;" edge="1" parent="1" source="XGQdO2VJRoyWXTCaJZEM-88" target="XGQdO2VJRoyWXTCaJZEM-86">
          <mxGeometry relative="1" as="geometry" />
        </mxCell>
        <mxCell id="XGQdO2VJRoyWXTCaJZEM-88" value="oj&lt;sup&gt;t&lt;/sup&gt;,a&lt;sub&gt;j&lt;/sub&gt;&lt;sup&gt;t-1&lt;/sup&gt;,m&lt;sub&gt;·j&lt;/sub&gt;&lt;sup&gt;t-1&lt;/sup&gt;" style="text;html=1;align=center;verticalAlign=middle;whiteSpace=wrap;rounded=1;fillColor=none;strokeColor=#9673a6;" vertex="1" parent="1">
          <mxGeometry x="-702.5" y="561" width="85" height="30" as="geometry" />
        </mxCell>
        <mxCell id="XGQdO2VJRoyWXTCaJZEM-89" value="mj&lt;sub&gt;·&lt;/sub&gt;&lt;sup&gt;t&lt;/sup&gt;" style="text;html=1;align=center;verticalAlign=middle;whiteSpace=wrap;rounded=0;" vertex="1" parent="1">
          <mxGeometry x="-590.6" y="333" width="30" height="30" as="geometry" />
        </mxCell>
        <mxCell id="XGQdO2VJRoyWXTCaJZEM-90" value="m&lt;sub&gt;·j&lt;/sub&gt;&lt;sup&gt;t&lt;/sup&gt;" style="text;html=1;align=center;verticalAlign=middle;whiteSpace=wrap;rounded=0;" vertex="1" parent="1">
          <mxGeometry x="-770" y="338" width="40" height="20" as="geometry" />
        </mxCell>
        <mxCell id="XGQdO2VJRoyWXTCaJZEM-91" value="" style="endArrow=classic;html=1;rounded=0;fontFamily=Helvetica;fontSize=12;fontColor=default;resizable=1;entryX=-0.003;entryY=0.22;entryDx=0;entryDy=0;entryPerimeter=0;" edge="1" parent="1">
          <mxGeometry width="50" height="50" relative="1" as="geometry">
            <mxPoint x="-770" y="359.40999999999997" as="sourcePoint" />
            <mxPoint x="-721.1999999999998" y="359.6099999999998" as="targetPoint" />
          </mxGeometry>
        </mxCell>
        <mxCell id="XGQdO2VJRoyWXTCaJZEM-92" value="" style="endArrow=classic;html=1;rounded=0;fontFamily=Helvetica;fontSize=12;fontColor=default;resizable=1;entryX=-0.003;entryY=0.22;entryDx=0;entryDy=0;entryPerimeter=0;" edge="1" parent="1">
          <mxGeometry width="50" height="50" relative="1" as="geometry">
            <mxPoint x="-600.0000000000001" y="359.40999999999997" as="sourcePoint" />
            <mxPoint x="-551.1999999999999" y="359.6099999999998" as="targetPoint" />
          </mxGeometry>
        </mxCell>
        <mxCell id="XGQdO2VJRoyWXTCaJZEM-93" style="edgeStyle=orthogonalEdgeStyle;rounded=0;orthogonalLoop=1;jettySize=auto;html=1;exitX=0.5;exitY=0;exitDx=0;exitDy=0;entryX=0.5;entryY=1;entryDx=0;entryDy=0;fontFamily=Helvetica;fontSize=12;fontColor=default;resizable=1;" edge="1" parent="1" source="XGQdO2VJRoyWXTCaJZEM-94" target="XGQdO2VJRoyWXTCaJZEM-18">
          <mxGeometry relative="1" as="geometry" />
        </mxCell>
        <mxCell id="XGQdO2VJRoyWXTCaJZEM-196" style="edgeStyle=orthogonalEdgeStyle;rounded=0;orthogonalLoop=1;jettySize=auto;html=1;exitX=1;exitY=0.5;exitDx=0;exitDy=0;entryX=0;entryY=0.5;entryDx=0;entryDy=0;fontFamily=Helvetica;fontSize=12;fontColor=default;resizable=1;" edge="1" parent="1" source="XGQdO2VJRoyWXTCaJZEM-94" target="XGQdO2VJRoyWXTCaJZEM-183">
          <mxGeometry relative="1" as="geometry" />
        </mxCell>
        <mxCell id="XGQdO2VJRoyWXTCaJZEM-94" value="Q&lt;sub&gt;i&lt;/sub&gt;" style="rounded=1;whiteSpace=wrap;html=1;strokeColor=default;align=center;verticalAlign=middle;fontFamily=Helvetica;fontSize=12;fontColor=default;resizable=1;fillColor=default;" vertex="1" parent="1">
          <mxGeometry x="205" y="75" width="50" height="35" as="geometry" />
        </mxCell>
        <mxCell id="XGQdO2VJRoyWXTCaJZEM-96" value="Q&lt;sub&gt;k&lt;/sub&gt;" style="rounded=1;whiteSpace=wrap;html=1;strokeColor=default;align=center;verticalAlign=middle;fontFamily=Helvetica;fontSize=12;fontColor=default;resizable=1;fillColor=default;" vertex="1" parent="1">
          <mxGeometry x="1152.8" y="550" width="50" height="35" as="geometry" />
        </mxCell>
        <mxCell id="XGQdO2VJRoyWXTCaJZEM-97" style="edgeStyle=orthogonalEdgeStyle;rounded=0;orthogonalLoop=1;jettySize=auto;html=1;exitX=0.5;exitY=0;exitDx=0;exitDy=0;entryX=0;entryY=0.5;entryDx=0;entryDy=0;fontFamily=Helvetica;fontSize=12;fontColor=default;resizable=1;" edge="1" parent="1" source="XGQdO2VJRoyWXTCaJZEM-98" target="XGQdO2VJRoyWXTCaJZEM-18">
          <mxGeometry relative="1" as="geometry" />
        </mxCell>
        <mxCell id="XGQdO2VJRoyWXTCaJZEM-98" value="Q&lt;sub&gt;j&lt;/sub&gt;" style="rounded=1;whiteSpace=wrap;html=1;strokeColor=default;align=center;verticalAlign=middle;fontFamily=Helvetica;fontSize=12;fontColor=default;resizable=1;fillColor=default;" vertex="1" parent="1">
          <mxGeometry x="-685" y="110" width="50" height="35" as="geometry" />
        </mxCell>
        <mxCell id="XGQdO2VJRoyWXTCaJZEM-99" value="Encoding" style="text;html=1;align=center;verticalAlign=middle;whiteSpace=wrap;rounded=0;fontFamily=Helvetica;fontSize=12;fontColor=default;resizable=1;" vertex="1" parent="1">
          <mxGeometry x="980" y="255.25" width="60" height="30" as="geometry" />
        </mxCell>
        <mxCell id="XGQdO2VJRoyWXTCaJZEM-100" style="edgeStyle=orthogonalEdgeStyle;rounded=0;orthogonalLoop=1;jettySize=auto;html=1;exitX=0.5;exitY=0;exitDx=0;exitDy=0;entryX=0.5;entryY=1;entryDx=0;entryDy=0;" edge="1" parent="1" source="XGQdO2VJRoyWXTCaJZEM-101" target="XGQdO2VJRoyWXTCaJZEM-103">
          <mxGeometry relative="1" as="geometry" />
        </mxCell>
        <mxCell id="XGQdO2VJRoyWXTCaJZEM-101" value="MLP" style="rounded=1;whiteSpace=wrap;html=1;" vertex="1" parent="1">
          <mxGeometry x="1147.8" y="922.25" width="60" height="30" as="geometry" />
        </mxCell>
        <mxCell id="XGQdO2VJRoyWXTCaJZEM-102" style="edgeStyle=orthogonalEdgeStyle;rounded=0;orthogonalLoop=1;jettySize=auto;html=1;exitX=0.5;exitY=0;exitDx=0;exitDy=0;entryX=0.5;entryY=1;entryDx=0;entryDy=0;" edge="1" parent="1" source="XGQdO2VJRoyWXTCaJZEM-103" target="XGQdO2VJRoyWXTCaJZEM-105">
          <mxGeometry relative="1" as="geometry">
            <mxPoint x="1177.8" y="810.25" as="targetPoint" />
          </mxGeometry>
        </mxCell>
        <mxCell id="XGQdO2VJRoyWXTCaJZEM-103" value="GRU" style="rounded=1;whiteSpace=wrap;html=1;" vertex="1" parent="1">
          <mxGeometry x="1147.8" y="850.25" width="60" height="30" as="geometry" />
        </mxCell>
        <mxCell id="XGQdO2VJRoyWXTCaJZEM-104" style="edgeStyle=orthogonalEdgeStyle;rounded=0;orthogonalLoop=1;jettySize=auto;html=1;exitX=0.5;exitY=0;exitDx=0;exitDy=0;entryX=0.5;entryY=1;entryDx=0;entryDy=0;fontFamily=Helvetica;fontSize=12;fontColor=default;resizable=1;" edge="1" parent="1" source="XGQdO2VJRoyWXTCaJZEM-105" target="XGQdO2VJRoyWXTCaJZEM-109">
          <mxGeometry relative="1" as="geometry" />
        </mxCell>
        <mxCell id="XGQdO2VJRoyWXTCaJZEM-105" value="MLP" style="rounded=1;whiteSpace=wrap;html=1;" vertex="1" parent="1">
          <mxGeometry x="1147.8" y="760.25" width="60" height="30" as="geometry" />
        </mxCell>
        <mxCell id="XGQdO2VJRoyWXTCaJZEM-106" value="" style="endArrow=classic;html=1;rounded=0;entryX=0;entryY=0.5;entryDx=0;entryDy=0;exitX=1;exitY=0.5;exitDx=0;exitDy=0;" edge="1" parent="1" target="XGQdO2VJRoyWXTCaJZEM-103">
          <mxGeometry width="50" height="50" relative="1" as="geometry">
            <mxPoint x="1117.8" y="865.25" as="sourcePoint" />
            <mxPoint x="1147.8" y="865.25" as="targetPoint" />
          </mxGeometry>
        </mxCell>
        <mxCell id="XGQdO2VJRoyWXTCaJZEM-107" value="" style="endArrow=classic;html=1;rounded=0;exitX=1;exitY=0.5;exitDx=0;exitDy=0;entryX=0;entryY=0.5;entryDx=0;entryDy=0;" edge="1" parent="1" source="XGQdO2VJRoyWXTCaJZEM-103">
          <mxGeometry width="50" height="50" relative="1" as="geometry">
            <mxPoint x="1222.8" y="864.96" as="sourcePoint" />
            <mxPoint x="1237.8" y="865.25" as="targetPoint" />
          </mxGeometry>
        </mxCell>
        <mxCell id="XGQdO2VJRoyWXTCaJZEM-108" style="edgeStyle=orthogonalEdgeStyle;rounded=0;orthogonalLoop=1;jettySize=auto;html=1;exitX=0.5;exitY=0;exitDx=0;exitDy=0;entryX=0.5;entryY=1;entryDx=0;entryDy=0;fontFamily=Helvetica;fontSize=12;fontColor=default;resizable=1;" edge="1" parent="1" source="XGQdO2VJRoyWXTCaJZEM-109" target="XGQdO2VJRoyWXTCaJZEM-96">
          <mxGeometry relative="1" as="geometry" />
        </mxCell>
        <mxCell id="XGQdO2VJRoyWXTCaJZEM-109" value="" style="shape=orEllipse;perimeter=ellipsePerimeter;whiteSpace=wrap;html=1;backgroundOutline=1;" vertex="1" parent="1">
          <mxGeometry x="1167.8" y="665.25" width="20" height="20" as="geometry" />
        </mxCell>
        <mxCell id="XGQdO2VJRoyWXTCaJZEM-110" value="Q&lt;sup&gt;i&lt;/sup&gt;&lt;sub&gt;l&lt;/sub&gt;" style="text;html=1;align=center;verticalAlign=middle;whiteSpace=wrap;rounded=0;" vertex="1" parent="1">
          <mxGeometry x="1155.3" y="720.25" width="25" height="30" as="geometry" />
        </mxCell>
        <mxCell id="XGQdO2VJRoyWXTCaJZEM-111" style="edgeStyle=orthogonalEdgeStyle;rounded=0;orthogonalLoop=1;jettySize=auto;html=1;exitX=0.5;exitY=0;exitDx=0;exitDy=0;fontFamily=Helvetica;fontSize=12;fontColor=default;resizable=1;" edge="1" parent="1" source="XGQdO2VJRoyWXTCaJZEM-112">
          <mxGeometry relative="1" as="geometry">
            <mxPoint x="1134.7142857142858" y="225.25000000000023" as="targetPoint" />
          </mxGeometry>
        </mxCell>
        <mxCell id="XGQdO2VJRoyWXTCaJZEM-112" value="" style="rounded=1;whiteSpace=wrap;html=1;strokeColor=#C73500;align=center;verticalAlign=middle;fontFamily=Helvetica;fontSize=12;resizable=1;fillColor=default;fontColor=#000000;" vertex="1" parent="1">
          <mxGeometry x="1087.5" y="315.25" width="95" height="68" as="geometry" />
        </mxCell>
        <mxCell id="XGQdO2VJRoyWXTCaJZEM-113" value="" style="shape=image;verticalLabelPosition=bottom;labelBackgroundColor=default;verticalAlign=top;aspect=fixed;imageAspect=0;image=data:image/png,iVBORw0KGgoAAAANSUhEUgAAAKoAAAByCAYAAADDG0rAAAAMTmlDQ1BJQ0MgUHJvZmlsZQAASImVVwdYU8kWnltSIQQIhCIl9CaISAkgJYQWQHoRRCUkAUKJMSGo2NFFBdcuIljRVRDFtgKy2FBXXVkUu2tZLCisrIsFu/ImBNBlX/nefN/c+e8/Z/4559y5d+4AQO/gS6W5qCYAeZJ8WWxIAGticgqL1AWoQBvoAVtgyRfIpZzo6AgAy1D79/LmBkCU7VVHpdY/+/9r0RKK5AIAkGiI04VyQR7EPwKANwuksnwAiFLIW8zIlyrxOoh1ZNBBiKuVOFOFm5U4XYUvD9jEx3IhfgwAWZ3Pl2UCoNELeVaBIBPq0GG0wFkiFEsg9ofYNy9vmhDiBRDbQhs4J12pz07/Rifzb5rpw5p8fuYwVsUyUMiBYrk0lz/r/0zH/y55uYqhOWxgVc+ShcYqY4Z5e5wzLVyJ1SF+J0mPjIJYGwAUFwsH7JWYmaUITVDZo7YCORfmDDAhHi/PjeMN8rFCfmA4xEYQZ0hyIyMGbYoyxMFKG5g/tFycz4uHWB/iapE8KG7Q5qRsWuzQvDcyZFzOIN/Flw34oNT/oshJ4Kj0Me0sEW9QH3MqzIpPgpgKcWCBODESYg2II+U5ceGDNqmFWdzIIRuZIlYZiyXEMpEkJEClj5VlyIJjB+335MmHYsdOZol5kYP4Sn5WfKgqV9hjAX/AfxgL1iuScBKGdETyiRFDsQhFgUGq2HGySJIQp+JxfWl+QKxqLG4vzY0etMcDRLkhSt4c4nh5QdzQ2IJ8uDhV+nixND86XuUnXpHND4tW+YMfABGACwIBCyhgTQfTQDYQt/U09MA7VU8w4AMZyAQi4DjIDI1IGuiRwGscKAR/QiQC8uFxAQO9IlAA+c8jWCUnHuZUV0eQMdinVMkBTyDOA+EgF94rBpQkwx4kgseQEf/DIz6sAhhDLqzK/n/PD7FfGQ5kIgYZxdCMLPqQJTGIGEgMJQYT7XBD3Bf3xiPg1R9WF5yNew7F8dWe8ITQTnhIuE7oINyeKi6SjfByAuiA+sGD+Un/Nj+4NdR0wwNwH6gOlXEmbggccVc4Dwf3gzO7QZY76LcyK6wR2n+L4JsnNGhHcaagFD2KP8V25EgNew23YRVlrr/Nj8rX9OF8c4d7Rs7P/Sb7QtiGj7TElmKHsXPYKewC1ow1ABZ2AmvEWrFjSjy84h4PrLih2WIH/MmBOiPXzNcnq8yk3LnWudv5k6ovXzQzX/kycqdJZ8nEmVn5LA7cMUQsnkTgNJrl4uziCoBy/1F93l7FDOwrCLP1K7fodwB8TvT39//0lQs7AcBBD/hJOPqVs2XDrUUNgPNHBQpZgYrDlRcC/HLQ4dtnAEyABdzfHIELcAfewB8EgTAQBeJBMpgCvc+C61wGZoA5YCEoBqVgFVgPKsBWsANUg33gEGgAzeAU+BlcBJfBdXAHrp5O8Az0gjfgI4IgJISGMBADxBSxQhwQF4SN+CJBSAQSiyQjaUgmIkEUyBxkEVKKrEEqkO1IDXIQOYqcQi4g7cht5AHSjbxEPqAYqo7qoMaoNToGZaMcNByNRyejmeh0tBBdjK5Ay9EqdC9aj55CL6LX0Q70GdqHAUwNY2JmmCPGxrhYFJaCZWAybB5WgpVhVVgd1gSf81WsA+vB3uNEnIGzcEe4gkPxBFyAT8fn4cvxCrwar8fP4FfxB3gv/oVAIxgRHAheBB5hIiGTMINQTCgj7CIcIZyF71In4Q2RSGQSbYge8F1MJmYTZxOXEzcT9xNPEtuJj4h9JBLJgORA8iFFkfikfFIxaSNpL+kE6Qqpk/SOrEY2JbuQg8kpZAm5iFxG3kM+Tr5Cfkr+SNGkWFG8KFEUIWUWZSVlJ6WJconSSflI1aLaUH2o8dRs6kJqObWOepZ6l/pKTU3NXM1TLUZNrLZArVztgNp5tQdq79W11e3Vueqp6gr1Feq71U+q31Z/RaPRrGn+tBRaPm0FrYZ2mnaf9k6DoeGkwdMQaszXqNSo17ii8ZxOoVvROfQp9EJ6Gf0w/RK9R5Oiaa3J1eRrztOs1DyqeVOzT4uhNVYrSitPa7nWHq0LWl3aJG1r7SBtofZi7R3ap7UfMTCGBYPLEDAWMXYyzjI6dYg6Njo8nWydUp19Om06vbrauq66ibozdSt1j+l2MDGmNZPHzGWuZB5i3mB+0DPW4+iJ9Jbp1eld0XurP0rfX1+kX6K/X/+6/gcDlkGQQY7BaoMGg3uGuKG9YYzhDMMthmcNe0bpjPIeJRhVMurQqN+MUCN7o1ij2UY7jFqN+oxNjEOMpcYbjU8b95gwTfxNsk3WmRw36TZlmPqaik3XmZ4w/YOly+KwclnlrDOsXjMjs1Azhdl2szazj+Y25gnmReb7ze9ZUC3YFhkW6yxaLHotTS0nWM6xrLX8zYpixbbKstpgdc7qrbWNdZL1EusG6y4bfRueTaFNrc1dW5qtn+102yrba3ZEO7Zdjt1mu8v2qL2bfZZ9pf0lB9TB3UHssNmhfTRhtOdoyeiq0Tcd1R05jgWOtY4PnJhOEU5FTg1Oz8dYjkkZs3rMuTFfnN2cc513Ot8Zqz02bGzR2KaxL13sXQQulS7XxtHGBY+bP65x3AtXB1eR6xbXW24MtwluS9xa3D67e7jL3Ovcuz0sPdI8NnncZOuwo9nL2ec9CZ4BnvM9mz3fe7l75Xsd8vrL29E7x3uPd9d4m/Gi8TvHP/Ix9+H7bPfp8GX5pvlu8+3wM/Pj+1X5PfS38Bf67/J/yrHjZHP2cp4HOAfIAo4EvOV6cedyTwZigSGBJYFtQdpBCUEVQfeDzYMzg2uDe0PcQmaHnAwlhIaHrg69yTPmCXg1vN4wj7C5YWfC1cPjwivCH0bYR8gimiagE8ImrJ1wN9IqUhLZEAWieFFro+5F20RPj/4phhgTHVMZ8yR2bOyc2HNxjLipcXvi3sQHxK+Mv5Ngm6BIaEmkJ6Ym1iS+TQpMWpPUMXHMxLkTLyYbJouTG1NIKYkpu1L6JgVNWj+pM9UttTj1xmSbyTMnX5hiOCV3yrGp9Kn8qYfTCGlJaXvSPvGj+FX8vnRe+qb0XgFXsEHwTOgvXCfsFvmI1oieZvhkrMnoyvTJXJvZneWXVZbVI+aKK8QvskOzt2a/zYnK2Z3Tn5uUuz+PnJeWd1SiLcmRnJlmMm3mtHapg7RY2jHda/r66b2ycNkuOSKfLG/M14E/+q0KW8V3igcFvgWVBe9mJM44PFNrpmRm6yz7WctmPS0MLvxhNj5bMLtljtmchXMezOXM3T4PmZc+r2W+xfzF8zsXhCyoXkhdmLPw1yLnojVFrxclLWpabLx4weJH34V8V1usUSwrvrnEe8nWpfhS8dK2ZeOWbVz2pURY8kupc2lZ6aflguW/fD/2+/Lv+1dkrGhb6b5yyyriKsmqG6v9Vlev0VpTuObR2glr69ex1pWse71+6voLZa5lWzdQNyg2dJRHlDdutNy4auOniqyK65UBlfs3GW1atuntZuHmK1v8t9RtNd5auvXDNvG2W9tDttdXWVeV7SDuKNjxZGfiznM/sH+o2WW4q3TX592S3R3VsdVnajxqavYY7VlZi9Yqarv3pu69vC9wX2OdY932/cz9pQfAAcWBPw6mHbxxKPxQy2H24bofrX7cdIRxpKQeqZ9V39uQ1dDRmNzYfjTsaEuTd9ORn5x+2t1s1lx5TPfYyuPU44uP958oPNF3Unqy51TmqUctU1vunJ54+tqZmDNtZ8PPnv85+OfT5zjnTpz3Od98wevC0V/YvzRcdL9Y3+rWeuRXt1+PtLm31V/yuNR42fNyU/v49uNX/K6cuhp49edrvGsXr0deb7+RcOPWzdSbHbeEt7pu595+8VvBbx/vLLhLuFtyT/Ne2X2j+1W/2/2+v8O949iDwAetD+Me3nkkePTssfzxp87FT2hPyp6aPq3pculq7g7uvvzHpD86n0mffewp/lPrz03PbZ//+Jf/X629E3s7X8he9L9c/srg1e7Xrq9b+qL77r/Je/Pxbck7g3fV79nvz31I+vD044xPpE/ln+0+N30J/3K3P6+/X8qX8Qd+BTCgPNpkAPByNwC0ZAAY8NxInaQ6Hw4URHWmHUDgP2HVGXKguANQB//pY3rg381NAA7sBMAa6tNTAYimARDvCdBx44br0Flu4NypLER4NtgW9Dk9Lx38m6I6k37j98gWKFVdwcj2X18LgyaXDPIBAAAAbGVYSWZNTQAqAAAACAAEARoABQAAAAEAAAA+ARsABQAAAAEAAABGASgAAwAAAAEAAgAAh2kABAAAAAEAAABOAAAAAAAAAJAAAAABAAAAkAAAAAEAAqACAAQAAAABAAAAqqADAAQAAAABAAAAcgAAAAAM3wPvAAAACXBIWXMAABYlAAAWJQFJUiTwAAARi0lEQVR4Ae1d+XNU15X+pG61Wt3a9w0QyGA2s++LcTAmhEkmJokrU6n5IfO3zExqqqZSUxN7KonHdkzsMRhsEjCxjTHIxgvYAgRiNQitrX3pltSSWi21NN95GBxUWnEv792+p0rV6tev37vv3K/Pvffcc76TME6BFq0Bk2sg0eTt083TGjA0oIGqgWAJDWigWqKbdCM1UDUGLKEBDVRLdJNupAaqxoAlNGC3RCtN2sjxUAih4QDGx0JsYQISbTYkOpKRwFct4dWABupc9Um3s4Az0N2JodYm9N25iRF/LxKTkmFLcSG9/Em4SsuQnJUDmzNlrlfX50+hAQ3UKRQz2WGxnAMtHnirLqD11HEMNNbCnkyApqYhIcmBkZ4ugEBOmbcQhXt+jJz12+DMLSCIkya7nD42Bw0k6J2p2WlrfHQEPdWX0PDOQfRer0JKcSnSl66Ca/5CODKyeZFxBHt7MFBfi/67NxBob0XmU+tR+pNfImvlWm1dZ6fmKc/SQJ1SNd99ICBt/eQU6g7+Dw+OI2vdFmSu3ggb56OTyeiAH77rl+Gr+hpJGZkoPfDPyN/2DOyu1MlO18dmoQEN1BmUNB4ahYfD/N2XfmNYz/xdP4SbQ/tspL/2Drq+PIux4DDmvfBrFO/aB5vLPZuv6nMmaEDPUSco5JG3Y2MGSO/87l+R9sRSFO59HsnZuY+cMt2btEVLOOQ70XnuNBrffg02uwMFTz8HW7Jzuq/pzybRgPajTqIU4xAXRe3nP0HNH/4T7oWLUfSjn88JpA8u6yqej7xdewnOFDQc+RO8nN+KldYyNw1ooE6hL+/Nq6h97b/hyMlF8b6fccGUNcWZMx92Fc1DPi1paKAf9YdexhAXWuId0DJ7DWigTqKrYK8X9W+9jBG+Fu7+ByTn5E1y1twOuReUI++Zvej/5ibucVE2Ghia2wXi/GwN1AkAkGG5nkO0r/oicnc+BxcBFi7JWLYGeTv3cM76ERqPH9JWdQ6K1UCdoKy2z8+g/aPjyFy1gX7QdUhMDJ+KEhISkL1hG9KWLIfnndchXgEts9NA+Hphdvcz9VmBrg40v3cYNncqcjZs546SI+ztFd+ruLjGgiO4/eK/QXy0WmbWgAbqtzqSAJP6o6/BX3MbOVufQVJ2DsQCRkKc+UUo2n8AvdWXUXf0oJ4CzELJGqjfKqn78gXu4Vdyx2kTUhcuYSRUZF3M6UtXI3XJMniOvYGhzrZZdFV8n6KByv6XaKiWU8cw2u/j/v1TRhRUpGGRaLejmL7ZkV4fbv/u378NFYz0Xa17fQ1U+jNbPj5pBJpkc17qLCiK2JA/ESbi9srfvR++q5Xw3rgy8WP9/u80EPdADfb50P3Vp8YevGvBoikDTf5OZ2H9N3vtZsZcJ+Du7/8DYyPBsF5bpYvFNVCFe6PpxNuMdKpC1vqtcOYVRb1vJUil5Kf/hMGmRnjoFtMyuQbiGqgDzQ0E6UWk0qnvnrfISCWZXE2ROyqeBfe8MiSlZ8Dz7p8xOuiP3M0sfOW4BaoRvnfiEPpuXOXqezkcTB2JldhS3Ch9/lcY7mhDzcGX2AwdBzCxL+IWqH337sDPv6x1m5FWvjRqC6iJHSDvxaqKRZVsAe/FLxH0+SY7La6PxSVQx4JBtJ09yZSRW0wpmcfI+9gHM9vdaSigByDQ2XHfqjIWVst3GohLoPbevWlkj2au3oDUJ5Z9p40Y/2dPTUdq+RJOR65gqIOhgFoeaiDugBoaGkTHF2eYhFcDV8l82J2uh8qI9T9JBGru5qcx3NWGusOvMsBa+AK0iAbiC6h0RxnW9EYVMpatQtri5aZDgZ0B2qmLl6H/znX4mY6t5b4G4gqoo4MD6K78AkPNjcbCxYy5S460DGSt2ojhznY0MWZ1bERHVwlU4weotKZ9925zu/Jrwx1lRmv6wHo6svMMq+qvuYX+Oh2zGldAFWvac6WSNDweuGOwVfoAhLN5TUpLR/qTKw2r2nrmpLaqVFp8WFRaU3/DPXgvfQlXWTlTn803N50I4OTcQqOt/d/c0FY1XoA6ypW+99olzk0bkCq59hbIq3eQYSV98QoMtzejg+kx8R6wor5FpTUd8DSgizn6KaULjM6faL3M+t5ZWIyUkgXovVlFq3rXrM2MSruUB2qIacnCAzXUVGcsoqxEBenIzOaiaikCLU2GtyKePQBqA5XWdLDNg45PPkQyrZMMpVaTlOIFDOYuge9apTHPtlr7w9VepYEaIjmZ7/Z1zk3rkU4Hv51Eu1YTsapuzqsHG+vQQ9davGatKg3UAJ3mbR8cY0ZpPtKXrLQaRo32GvGq88vhICGw78rX8HO+HY+iLFBlldxHh7mwQmesWGOKCKnHBZiDqdtugtV/75Yx3x4fjT+SNWWBOuztQfOJw3BkZiFj+arHxYgpvidWNY2LKgnu9nL4H2xvMUW7otkIJYEqUUf++rvw135Da7pOCaZnB3lZnSVl6L12me6qK3EXWaUkUEf8feQifQ0SjJy5en00f/gRu1dCQiIyl68m1XoWrepFVmXpiNi9zHhh9YDKyHg/V8iy9Zi+Yq0S1vQBcCRYxUmuVUnv9t2+RtKK+MkCUA6o4pKq+/NLdEW5kbtx+4M+VuI1gcyCWWQZtDMU0FddiaC3W4nnms1DKAfUgaZ6sp5cQfrKNVGh5pmNksN5TnJuPpyFJeg4+4ERBI44sapqAZU7UXdf+S0SWTEvf/uecOLDNNcSq5pDjlU7QwF9XFgF+3tN07ZINkQpoA60NDKU7yu6o1YjkRX1VJXkvEIk5xeSy/Xt+2TA/IGqLkoB9faLvzHK5RQ+949K95v4VXO3kMM1NRU+5n+NsACb6qIMUGVrsefCOa7010AoHVWXlIJiOPOL0XjkdQwwMkz1KitKAFXcNDUv/5aLJyeK9h1QHaMPn0+YsaVocA+LCEtwuMqiBFAlqLj7fAUypD5pBHj3zQoA4SVwMrC6kVVcBjk/V9mqWh6oEqBR+8bvudKnNWUJyHiT3G0/MGjcOy98CgkSV1UsD1QhlPBWfs5yO1LtOfxVTMze8S5yZ6WQtrLp6OusCMhgFUU9AJYGqoTy1bMYbgLnaVISJ14ld9tug7W6jZkMqiYBWhqo3ltXjWDizJXrjaE/XoEqVlUKC3uOvalsCKBlgRoKBOD5y1tcPCUhZ8vTrLBni1ecGs+du323Qf/b/P5RpquoF1htWaB2X/2Ke/qXkc4ykBKAEu/iKixlXthKNB9/m+kq9KsqJpYE6oi/n9H7R5DIco1Za7ewFGSSYt3yeI+Tt+1ZJNiTWGqdlJWKla60HlC5qu1kPKbkD2XSb2pPTXu8XlXwW1K3KovlgNrPvg8f43FVEssBNejrQevpE0ZdKKPKXhw5+GcDvNytu4xExrr/+6NRkXA237HCOdYCKq1p22enMdR4z6hZKqx3Wh7VgMFazYWVFK3o5taqKmIpoA6SMrLj3EewZ5Dqhu6YSJQpV6Fjs9dtZcZqNhreegUyn1dBLANU4V1qZmW7IU89Mp5ab5S7UaEDIvEMNm4n5/9gH/rJa+D58JgSu1WWAWrfnRvcKv0MKazFJJX2Erm61TK1BtLIDCN1q1rff0eJTQBLAHV0oB/CvCwLqYyl5JBicpuW6TUg06L8p/ci2NV5311l8QorlgBqJwtEeLkwSCNduLu0jLtQlmj29EiK8KeSBZBSVMrQxw3oqTzH9OrqCN8xspc3fY8HutpJwlthBF2ksXhZogUZ+SLbhVNfXZz/WWs3GTUAGg79L0KsY2BVMTVQZc+6VZzXly+wLtRqWoh5Ma1ZarVOFquaTNKK3J170HfrmqUXVqYGqgxX3V9UkNK8zBj29Vbp3H8qsuhMW/QkHMxabfv4Pfglv8qCYlqgBnu9kPjKQLuHwRZPxbRMuQX79ZEmC19V/vZnWbqoGbVvvoxQMPDI51Z4Y0qgChtfx5cV6KJzX7JKxdUiw5iWx9OA6M7JhVUO66z23biEtnOnH+9CMfyWKYEqyXrtn36AJAZZCG1kPKQ/RxoDUrJIOFYT7Q76Vt9lMmBTpG8Z1uubDqhG0MmZ98jGd9NginZybqUlPBoQHoDcXXsN3tjaN/+I0QHreAFMBdTQcMAIOmn927vIov8vk8x1WsKnAZkCyK5ezuZd8FWdR/Opv1gmG8A0QB0fC8HHHKhmVlR2zV+E7I074j69JHwQ/e5KMgWQ8EhHTgE6Kt5HD7MkrMAIaA6gMnxvsMWDZu5Li1M6m7ymDq5UtURGA868AmSREXC4u51Ea4dZi6vZ9IErsQcqQTrs7UIzo3x6vv7ciFBPK38yMj2kr/pQAxImmb1pF2sCVKHpxCH2gblJgWPOJiZMdC1n/oYWUijKnDR7g1os0Q+RYbJ/Em027vatwkhvDzo/O4OkrDzM2/9zmDUYPaYWNTQ8jM4Ln8DzzkGkch8/b8cenagXRUDb3anIWrOZDNbFaD99nH1hXlqgmAF1PDTKVInzqHvzD/w15yB/53OsYpIaxW7StxINSEJgzqadzF61o/nkEXSzjpUYELNJTIA6Pj5GkH6F2j+9CNlvEjoe4abXEhsNCCtgzpZdCHIa0HTsDYMcOBQMxqYxU9w1+nNULp66L55Hzav/hRDnp/l7fgz3vIVTNE8fjpYG0sqXYpxcXp2ffoT6I6+ijP2USXIPG7kTzCAJ45RoNcTYw+c8qPb1FzFG4tn83ftZTNd6pcmjpa9o30cIkfsYsdbJWAApGz//hX9BDgk+zMCSGDWgSv2ntooPUH/4FcNnl79rH9IXL4t2X+j7zaABmZb1sXR852cfs45sNkoO/AoFZAuUjYJYSlSAKoW7PKf+ihYW0U1iEd08ltZxL1gUy+fW955GAzLI9t+7jS7GArM8IAp/+DxKf/QzFreIHY9CxIHay+zR5pNH0U03VEpZOXK5zyyFErSYXwMDTE2XTZhAaxNyaFUXvPBruFiMLRYSMaCOciu0/fMzaKN/btDIxV/H8ogbjeEkFg+q7/l4Ghju7oSX5Sz7b1UjhQEtxXsPoGDHs1H3d4cdqPeDS6rJD/Uei5Odh421kLLWbIKsKm2sqKfFehoQozPQcI9JlmfpGQghe/MOTgV+wT6N3lZ3+IDKeY2flrOt4kMO8xUY8XmNPKd0btM5OdTLlp0W62pgjB6BAGsE9N64gv7rVfQKFCFn624UPbuf04HSiD/Y9waquJykIFcb00Z6mH8f7GpjSZn5LPO4Bi6WlrG53DqNJOLdGL0bjNL3LdkBvquVCDQ3PExxkZ1F8YdHKmXosYE60t8HL2MZOzkP7b11xQjPk6rHGSuY1ly8gLyl6dqKRg8/Ub2TuLBGen1MFvSgt/oSAm0eg7hOatDm7diNTBqpcHsIZg9UNm6Yw7nU3uzh9mcvX4OcaMsesbtssTHMS9qI7Ncn2qK/4RXVntI3MzQwxtF0lGyBQhLSz42CwYYajAVHjILC6SvWIpubBZkM0k5mLAdN7ffS2rRAlSS7PvrT/LXfwH/nJgY5xEvAgiTbOYvnMzt0GdwlZQbrs5TQifeCD9+rJyz8ZZm/jrEY26i/DwOcDvjv3DKsrJQSsnPql1K6gImFKyBMNxIHK1Vc5ro1Oy1QK36yGRLlJNQwEjQiwQuusieQwiFedirkuM4QtTDCwtx02SiQNYvEDIwSuLL4GqivwRDLX8roa1RrYfUaqd+axFLuKUUlhl+9ZO9PZ7S4047RBVzRObmiS87ONYb4BCEn4400SVmYe1iRy8lCSqaC4J+NHGFCfJH2BINdaHHHyW873NNJS9uMQGcbgj1d6LtZjWSmxQAE6gwyrUX189fwfecWM9xffxxvGhCrK8/MVxHJjRNDOJNMC9SZvqw/1xqIlgZiEjgdrYfT91FHAxqo6vSl0k+igap096rzcBqo6vSl0k+igap096rzcBqo6vSl0k+igap096rzcBqo6vSl0k+igap096rzcBqo6vSl0k+igap096rzcBqo6vSl0k/y//hjMSooe8G7AAAAAElFTkSuQmCC;" vertex="1" parent="1">
          <mxGeometry x="1094.74" y="321.99" width="80.53" height="54" as="geometry" />
        </mxCell>
        <mxCell id="XGQdO2VJRoyWXTCaJZEM-114" value="N(0,1)" style="text;html=1;align=center;verticalAlign=middle;whiteSpace=wrap;rounded=0;fontFamily=Helvetica;fontSize=12;fontColor=default;resizable=1;" vertex="1" parent="1">
          <mxGeometry x="1175.27" y="336.75" width="60" height="30" as="geometry" />
        </mxCell>
        <mxCell id="XGQdO2VJRoyWXTCaJZEM-115" value="&lt;p style=&quot;line-height: 100%;&quot;&gt;&lt;font style=&quot;font-size: 22px;&quot;&gt;+&lt;/font&gt;&lt;/p&gt;" style="ellipse;whiteSpace=wrap;html=1;aspect=fixed;strokeColor=default;align=center;verticalAlign=middle;fontFamily=Helvetica;fontSize=12;fontColor=default;resizable=1;fillColor=default;strokeWidth=1.5;" vertex="1" parent="1">
          <mxGeometry x="220" y="220" width="18" height="18" as="geometry" />
        </mxCell>
        <mxCell id="XGQdO2VJRoyWXTCaJZEM-116" style="edgeStyle=orthogonalEdgeStyle;rounded=0;orthogonalLoop=1;jettySize=auto;html=1;exitX=0.5;exitY=0;exitDx=0;exitDy=0;entryX=0.5;entryY=1;entryDx=0;entryDy=0;fontFamily=Helvetica;fontSize=12;fontColor=default;resizable=1;" edge="1" parent="1" source="XGQdO2VJRoyWXTCaJZEM-117" target="XGQdO2VJRoyWXTCaJZEM-112">
          <mxGeometry relative="1" as="geometry" />
        </mxCell>
        <mxCell id="XGQdO2VJRoyWXTCaJZEM-117" value="&amp;nbsp;+&amp;nbsp;" style="ellipse;whiteSpace=wrap;html=1;aspect=fixed;strokeColor=default;align=center;verticalAlign=middle;fontFamily=Helvetica;fontSize=12;fontColor=default;resizable=1;fillColor=default;strokeWidth=2;" vertex="1" parent="1">
          <mxGeometry x="1125" y="406.75" width="20" height="20" as="geometry" />
        </mxCell>
        <mxCell id="XGQdO2VJRoyWXTCaJZEM-118" value="" style="endArrow=classic;html=1;rounded=0;fontFamily=Helvetica;fontSize=12;fontColor=default;resizable=1;entryX=0;entryY=0.5;entryDx=0;entryDy=0;" edge="1" parent="1" target="XGQdO2VJRoyWXTCaJZEM-117">
          <mxGeometry width="50" height="50" relative="1" as="geometry">
            <mxPoint x="1100" y="417.25" as="sourcePoint" />
            <mxPoint x="960" y="415.25" as="targetPoint" />
          </mxGeometry>
        </mxCell>
        <mxCell id="XGQdO2VJRoyWXTCaJZEM-119" value="Adding noise" style="text;html=1;align=center;verticalAlign=middle;whiteSpace=wrap;rounded=0;fontFamily=Helvetica;fontSize=12;fontColor=default;resizable=1;" vertex="1" parent="1">
          <mxGeometry x="1020" y="401.75" width="80" height="30" as="geometry" />
        </mxCell>
        <mxCell id="XGQdO2VJRoyWXTCaJZEM-120" value="sample" style="text;html=1;align=center;verticalAlign=middle;whiteSpace=wrap;rounded=0;fontFamily=Helvetica;fontSize=12;fontColor=default;resizable=1;" vertex="1" parent="1">
          <mxGeometry x="1140" y="271.99" width="50" height="30" as="geometry" />
        </mxCell>
        <mxCell id="XGQdO2VJRoyWXTCaJZEM-121" value="z&lt;sub&gt;i·&lt;/sub&gt;" style="text;html=1;align=center;verticalAlign=middle;whiteSpace=wrap;rounded=0;fontFamily=Helvetica;fontSize=12;fontColor=default;resizable=1;" vertex="1" parent="1">
          <mxGeometry x="1120.3" y="223" width="60" height="30" as="geometry" />
        </mxCell>
        <mxCell id="XGQdO2VJRoyWXTCaJZEM-122" value="" style="endArrow=classic;html=1;rounded=0;fontFamily=Helvetica;fontSize=12;fontColor=default;resizable=1;entryX=0.5;entryY=1;entryDx=0;entryDy=0;" edge="1" parent="1" target="XGQdO2VJRoyWXTCaJZEM-117">
          <mxGeometry width="50" height="50" relative="1" as="geometry">
            <mxPoint x="1135" y="550.25" as="sourcePoint" />
            <mxPoint x="1160.01" y="690" as="targetPoint" />
            <Array as="points">
              <mxPoint x="1135" y="455.25" />
            </Array>
          </mxGeometry>
        </mxCell>
        <mxCell id="XGQdO2VJRoyWXTCaJZEM-125" value="Training" style="text;html=1;align=center;verticalAlign=middle;whiteSpace=wrap;rounded=0;fontFamily=Helvetica;fontSize=12;fontColor=default;resizable=1;" vertex="1" parent="1">
          <mxGeometry x="890" y="397.5" width="60" height="33" as="geometry" />
        </mxCell>
        <mxCell id="XGQdO2VJRoyWXTCaJZEM-126" value="&lt;font color=&quot;#ff0000&quot;&gt;？&lt;/font&gt;" style="text;html=1;align=center;verticalAlign=middle;whiteSpace=wrap;rounded=0;fontFamily=Helvetica;fontSize=12;fontColor=default;resizable=1;" vertex="1" parent="1">
          <mxGeometry x="1109.27" y="555" width="60" height="30" as="geometry" />
        </mxCell>
        <mxCell id="XGQdO2VJRoyWXTCaJZEM-137" style="edgeStyle=orthogonalEdgeStyle;rounded=0;orthogonalLoop=1;jettySize=auto;html=1;exitX=1;exitY=0.5;exitDx=0;exitDy=0;entryX=0;entryY=0.5;entryDx=0;entryDy=0;fontFamily=Helvetica;fontSize=12;fontColor=default;resizable=1;" edge="1" parent="1" source="XGQdO2VJRoyWXTCaJZEM-132" target="XGQdO2VJRoyWXTCaJZEM-30">
          <mxGeometry relative="1" as="geometry" />
        </mxCell>
        <mxCell id="XGQdO2VJRoyWXTCaJZEM-132" value="z&lt;sub&gt;-i,t&lt;/sub&gt;&lt;sup&gt;&lt;font style=&quot;font-size: 7px;&quot;&gt;&lt;b&gt;(1)&lt;/b&gt;&lt;/font&gt;&lt;/sup&gt;" style="text;html=1;align=center;verticalAlign=middle;whiteSpace=wrap;rounded=1;fillColor=none;strokeColor=#9673a6;" vertex="1" parent="1">
          <mxGeometry x="-110" y="361.75" width="51" height="30" as="geometry" />
        </mxCell>
        <mxCell id="XGQdO2VJRoyWXTCaJZEM-139" value="&lt;span style=&quot;forced-color-adjust: none; color: rgb(0, 0, 0); font-family: Helvetica; font-size: 12px; font-style: normal; font-variant-ligatures: normal; font-variant-caps: normal; font-weight: 400; letter-spacing: normal; orphans: 2; text-align: center; text-indent: 0px; text-transform: none; widows: 2; word-spacing: 0px; -webkit-text-stroke-width: 0px; white-space: normal; text-decoration-thickness: initial; text-decoration-style: initial; text-decoration-color: initial; background-color: rgb(251, 251, 251); float: none; display: inline !important;&quot;&gt;τ&lt;/span&gt;&lt;sub style=&quot;forced-color-adjust: none; color: rgb(0, 0, 0); font-family: Helvetica; font-style: normal; font-variant-ligatures: normal; font-variant-caps: normal; font-weight: 400; letter-spacing: normal; orphans: 2; text-align: center; text-indent: 0px; text-transform: none; widows: 2; word-spacing: 0px; -webkit-text-stroke-width: 0px; white-space: normal; text-decoration-thickness: initial; text-decoration-style: initial; text-decoration-color: initial; background-color: rgb(251, 251, 251);&quot;&gt;i&lt;/sub&gt;&lt;sup style=&quot;forced-color-adjust: none; color: rgb(0, 0, 0); font-family: Helvetica; font-style: normal; font-variant-ligatures: normal; font-variant-caps: normal; font-weight: 400; letter-spacing: normal; orphans: 2; text-align: center; text-indent: 0px; text-transform: none; widows: 2; word-spacing: 0px; -webkit-text-stroke-width: 0px; white-space: normal; text-decoration-thickness: initial; text-decoration-style: initial; text-decoration-color: initial; background-color: rgb(251, 251, 251);&quot;&gt;t-1&lt;/sup&gt;" style="text;whiteSpace=wrap;html=1;fontFamily=Helvetica;fontSize=12;fontColor=default;resizable=1;" vertex="1" parent="1">
          <mxGeometry x="160.4" y="366.75" width="50" height="40" as="geometry" />
        </mxCell>
        <mxCell id="XGQdO2VJRoyWXTCaJZEM-140" value="τ&lt;sub&gt;i&lt;/sub&gt;&lt;sup&gt;t&lt;/sup&gt;" style="text;html=1;align=center;verticalAlign=middle;whiteSpace=wrap;rounded=0;" vertex="1" parent="1">
          <mxGeometry x="275.40000000000003" y="369.75" width="20" height="25" as="geometry" />
        </mxCell>
        <mxCell id="XGQdO2VJRoyWXTCaJZEM-141" style="edgeStyle=orthogonalEdgeStyle;rounded=0;orthogonalLoop=1;jettySize=auto;html=1;exitX=1;exitY=0.5;exitDx=0;exitDy=0;entryX=0.776;entryY=0.679;entryDx=0;entryDy=0;entryPerimeter=0;fontFamily=Helvetica;fontSize=12;fontColor=default;resizable=1;" edge="1" parent="1" source="XGQdO2VJRoyWXTCaJZEM-11">
          <mxGeometry relative="1" as="geometry">
            <mxPoint x="269.40000000000003" y="392.25" as="sourcePoint" />
            <mxPoint x="299.53600000000023" y="392.6399999999999" as="targetPoint" />
          </mxGeometry>
        </mxCell>
        <mxCell id="XGQdO2VJRoyWXTCaJZEM-144" value="m&lt;sub&gt;i&lt;/sub&gt;&lt;sup&gt;&lt;font style=&quot;font-size: 7px;&quot;&gt;&lt;b&gt;(1)&lt;/b&gt;&lt;/font&gt;&lt;/sup&gt;" style="rounded=1;whiteSpace=wrap;html=1;fillColor=#ffffd9;" vertex="1" parent="1">
          <mxGeometry x="479" y="475" width="60" height="30" as="geometry" />
        </mxCell>
        <mxCell id="XGQdO2VJRoyWXTCaJZEM-146" value="m&lt;sub&gt;j&lt;/sub&gt;&lt;sup&gt;&lt;font style=&quot;font-size: 7px;&quot;&gt;&lt;b&gt;(1)&lt;/b&gt;&lt;/font&gt;&lt;/sup&gt;" style="rounded=1;whiteSpace=wrap;html=1;fillColor=#ffffd9;" vertex="1" parent="1">
          <mxGeometry x="569" y="475" width="60" height="30" as="geometry" />
        </mxCell>
        <mxCell id="XGQdO2VJRoyWXTCaJZEM-147" value="Compression" style="rounded=1;whiteSpace=wrap;html=1;fillColor=#ffffd9;" vertex="1" parent="1">
          <mxGeometry x="479" y="401.75" width="150" height="30" as="geometry" />
        </mxCell>
        <mxCell id="XGQdO2VJRoyWXTCaJZEM-150" style="edgeStyle=orthogonalEdgeStyle;rounded=0;orthogonalLoop=1;jettySize=auto;html=1;exitX=0.5;exitY=0;exitDx=0;exitDy=0;entryX=0.198;entryY=0.958;entryDx=0;entryDy=0;entryPerimeter=0;fontFamily=Helvetica;fontSize=12;fontColor=default;resizable=1;" edge="1" parent="1" source="XGQdO2VJRoyWXTCaJZEM-144" target="XGQdO2VJRoyWXTCaJZEM-147">
          <mxGeometry relative="1" as="geometry" />
        </mxCell>
        <mxCell id="XGQdO2VJRoyWXTCaJZEM-151" style="edgeStyle=orthogonalEdgeStyle;rounded=0;orthogonalLoop=1;jettySize=auto;html=1;exitX=0.5;exitY=0;exitDx=0;exitDy=0;entryX=0.798;entryY=0.928;entryDx=0;entryDy=0;entryPerimeter=0;fontFamily=Helvetica;fontSize=12;fontColor=default;resizable=1;" edge="1" parent="1" source="XGQdO2VJRoyWXTCaJZEM-146" target="XGQdO2VJRoyWXTCaJZEM-147">
          <mxGeometry relative="1" as="geometry" />
        </mxCell>
        <mxCell id="XGQdO2VJRoyWXTCaJZEM-174" style="edgeStyle=orthogonalEdgeStyle;rounded=0;orthogonalLoop=1;jettySize=auto;html=1;exitX=0;exitY=0.5;exitDx=0;exitDy=0;entryX=0.5;entryY=0;entryDx=0;entryDy=0;fontFamily=Helvetica;fontSize=12;fontColor=default;resizable=1;" edge="1" parent="1" source="XGQdO2VJRoyWXTCaJZEM-152" target="XGQdO2VJRoyWXTCaJZEM-30">
          <mxGeometry relative="1" as="geometry">
            <Array as="points">
              <mxPoint x="310" y="341" />
              <mxPoint x="310" y="340" />
              <mxPoint x="95" y="340" />
            </Array>
          </mxGeometry>
        </mxCell>
        <mxCell id="XGQdO2VJRoyWXTCaJZEM-178" style="edgeStyle=orthogonalEdgeStyle;rounded=0;orthogonalLoop=1;jettySize=auto;html=1;exitX=0.25;exitY=0;exitDx=0;exitDy=0;entryX=0.5;entryY=1;entryDx=0;entryDy=0;fontFamily=Helvetica;fontSize=12;fontColor=default;resizable=1;" edge="1" parent="1" source="XGQdO2VJRoyWXTCaJZEM-152" target="XGQdO2VJRoyWXTCaJZEM-164">
          <mxGeometry relative="1" as="geometry" />
        </mxCell>
        <mxCell id="XGQdO2VJRoyWXTCaJZEM-152" value="m&lt;sub&gt;i&lt;/sub&gt;&lt;sup&gt;&lt;font style=&quot;font-size: 7px;&quot;&gt;&lt;b&gt;(L)&lt;/b&gt;&lt;/font&gt;&lt;/sup&gt;" style="rounded=1;whiteSpace=wrap;html=1;fillColor=#ffffd9;" vertex="1" parent="1">
          <mxGeometry x="479" y="325.99" width="60" height="30" as="geometry" />
        </mxCell>
        <mxCell id="XGQdO2VJRoyWXTCaJZEM-153" value="m&lt;sub&gt;j&lt;/sub&gt;&lt;sup&gt;&lt;font style=&quot;font-size: 7px;&quot;&gt;&lt;b&gt;(L)&lt;/b&gt;&lt;/font&gt;&lt;/sup&gt;" style="rounded=1;whiteSpace=wrap;html=1;fillColor=#ffffd9;" vertex="1" parent="1">
          <mxGeometry x="569" y="325.99" width="60" height="30" as="geometry" />
        </mxCell>
        <mxCell id="XGQdO2VJRoyWXTCaJZEM-154" style="edgeStyle=orthogonalEdgeStyle;rounded=0;orthogonalLoop=1;jettySize=auto;html=1;exitX=0.5;exitY=1;exitDx=0;exitDy=0;fontFamily=Helvetica;fontSize=12;fontColor=default;resizable=1;startArrow=classic;startFill=1;endArrow=none;endFill=0;entryX=0.198;entryY=-0.011;entryDx=0;entryDy=0;entryPerimeter=0;" edge="1" parent="1" source="XGQdO2VJRoyWXTCaJZEM-152" target="XGQdO2VJRoyWXTCaJZEM-147">
          <mxGeometry relative="1" as="geometry">
            <mxPoint x="509" y="400" as="targetPoint" />
          </mxGeometry>
        </mxCell>
        <mxCell id="XGQdO2VJRoyWXTCaJZEM-156" style="edgeStyle=orthogonalEdgeStyle;rounded=0;orthogonalLoop=1;jettySize=auto;html=1;exitX=0.5;exitY=1;exitDx=0;exitDy=0;entryX=0.798;entryY=-0.011;entryDx=0;entryDy=0;entryPerimeter=0;fontFamily=Helvetica;fontSize=12;fontColor=default;resizable=1;startArrow=classic;startFill=1;endArrow=none;endFill=0;" edge="1" parent="1" source="XGQdO2VJRoyWXTCaJZEM-153" target="XGQdO2VJRoyWXTCaJZEM-147">
          <mxGeometry relative="1" as="geometry" />
        </mxCell>
        <mxCell id="XGQdO2VJRoyWXTCaJZEM-158" value="GIB" style="rounded=1;whiteSpace=wrap;html=1;fillColor=#ffffd9;" vertex="1" parent="1">
          <mxGeometry x="479" y="150" width="150" height="30" as="geometry" />
        </mxCell>
        <mxCell id="XGQdO2VJRoyWXTCaJZEM-160" style="edgeStyle=orthogonalEdgeStyle;rounded=0;orthogonalLoop=1;jettySize=auto;html=1;exitX=0.5;exitY=0;exitDx=0;exitDy=0;entryX=0.798;entryY=0.948;entryDx=0;entryDy=0;entryPerimeter=0;fontFamily=Helvetica;fontSize=12;fontColor=default;resizable=1;dashed=1;dashPattern=12 12;" edge="1" parent="1">
          <mxGeometry relative="1" as="geometry">
            <mxPoint x="594.91" y="325.99" as="sourcePoint" />
            <mxPoint x="594.6099999999998" y="178.43999999999983" as="targetPoint" />
          </mxGeometry>
        </mxCell>
        <mxCell id="XGQdO2VJRoyWXTCaJZEM-172" style="edgeStyle=orthogonalEdgeStyle;rounded=0;orthogonalLoop=1;jettySize=auto;html=1;exitX=0;exitY=0.5;exitDx=0;exitDy=0;entryX=1;entryY=0.5;entryDx=0;entryDy=0;fontFamily=Helvetica;fontSize=12;fontColor=default;resizable=1;" edge="1" parent="1" source="XGQdO2VJRoyWXTCaJZEM-164" target="XGQdO2VJRoyWXTCaJZEM-168">
          <mxGeometry relative="1" as="geometry" />
        </mxCell>
        <mxCell id="XGQdO2VJRoyWXTCaJZEM-164" value="&lt;p style=&quot;line-height: 100%;&quot;&gt;&lt;font style=&quot;font-size: 22px;&quot;&gt;+&lt;/font&gt;&lt;/p&gt;" style="ellipse;whiteSpace=wrap;html=1;aspect=fixed;strokeColor=default;align=center;verticalAlign=middle;fontFamily=Helvetica;fontSize=12;fontColor=default;resizable=1;fillColor=default;strokeWidth=1.5;" vertex="1" parent="1">
          <mxGeometry x="484.9999999999998" y="244.25" width="18" height="18" as="geometry" />
        </mxCell>
        <mxCell id="XGQdO2VJRoyWXTCaJZEM-195" style="edgeStyle=orthogonalEdgeStyle;rounded=0;orthogonalLoop=1;jettySize=auto;html=1;exitX=0;exitY=0.5;exitDx=0;exitDy=0;entryX=1;entryY=0.5;entryDx=0;entryDy=0;fontFamily=Helvetica;fontSize=12;fontColor=default;resizable=1;" edge="1" parent="1" source="XGQdO2VJRoyWXTCaJZEM-166" target="XGQdO2VJRoyWXTCaJZEM-164">
          <mxGeometry relative="1" as="geometry" />
        </mxCell>
        <mxCell id="XGQdO2VJRoyWXTCaJZEM-166" value="Add noise" style="text;html=1;align=center;verticalAlign=middle;whiteSpace=wrap;rounded=0;fontFamily=Helvetica;fontSize=12;fontColor=default;resizable=1;" vertex="1" parent="1">
          <mxGeometry x="530" y="239.23999999999998" width="60" height="28.01" as="geometry" />
        </mxCell>
        <mxCell id="XGQdO2VJRoyWXTCaJZEM-180" style="edgeStyle=orthogonalEdgeStyle;rounded=0;orthogonalLoop=1;jettySize=auto;html=1;exitX=0.5;exitY=0;exitDx=0;exitDy=0;entryX=0.5;entryY=1;entryDx=0;entryDy=0;fontFamily=Helvetica;fontSize=12;fontColor=default;resizable=1;" edge="1" parent="1" source="XGQdO2VJRoyWXTCaJZEM-168" target="XGQdO2VJRoyWXTCaJZEM-179">
          <mxGeometry relative="1" as="geometry" />
        </mxCell>
        <mxCell id="XGQdO2VJRoyWXTCaJZEM-168" value="" style="rounded=1;whiteSpace=wrap;html=1;strokeColor=#C73500;align=center;verticalAlign=middle;fontFamily=Helvetica;fontSize=12;resizable=1;fillColor=default;fontColor=#000000;" vertex="1" parent="1">
          <mxGeometry x="350" y="228.26" width="75" height="49.99" as="geometry" />
        </mxCell>
        <mxCell id="XGQdO2VJRoyWXTCaJZEM-169" value="" style="shape=image;verticalLabelPosition=bottom;labelBackgroundColor=default;verticalAlign=top;aspect=fixed;imageAspect=0;image=data:image/png,iVBORw0KGgoAAAANSUhEUgAAAKoAAAByCAYAAADDG0rAAAAMTmlDQ1BJQ0MgUHJvZmlsZQAASImVVwdYU8kWnltSIQQIhCIl9CaISAkgJYQWQHoRRCUkAUKJMSGo2NFFBdcuIljRVRDFtgKy2FBXXVkUu2tZLCisrIsFu/ImBNBlX/nefN/c+e8/Z/4559y5d+4AQO/gS6W5qCYAeZJ8WWxIAGticgqL1AWoQBvoAVtgyRfIpZzo6AgAy1D79/LmBkCU7VVHpdY/+/9r0RKK5AIAkGiI04VyQR7EPwKANwuksnwAiFLIW8zIlyrxOoh1ZNBBiKuVOFOFm5U4XYUvD9jEx3IhfgwAWZ3Pl2UCoNELeVaBIBPq0GG0wFkiFEsg9ofYNy9vmhDiBRDbQhs4J12pz07/Rifzb5rpw5p8fuYwVsUyUMiBYrk0lz/r/0zH/y55uYqhOWxgVc+ShcYqY4Z5e5wzLVyJ1SF+J0mPjIJYGwAUFwsH7JWYmaUITVDZo7YCORfmDDAhHi/PjeMN8rFCfmA4xEYQZ0hyIyMGbYoyxMFKG5g/tFycz4uHWB/iapE8KG7Q5qRsWuzQvDcyZFzOIN/Flw34oNT/oshJ4Kj0Me0sEW9QH3MqzIpPgpgKcWCBODESYg2II+U5ceGDNqmFWdzIIRuZIlYZiyXEMpEkJEClj5VlyIJjB+335MmHYsdOZol5kYP4Sn5WfKgqV9hjAX/AfxgL1iuScBKGdETyiRFDsQhFgUGq2HGySJIQp+JxfWl+QKxqLG4vzY0etMcDRLkhSt4c4nh5QdzQ2IJ8uDhV+nixND86XuUnXpHND4tW+YMfABGACwIBCyhgTQfTQDYQt/U09MA7VU8w4AMZyAQi4DjIDI1IGuiRwGscKAR/QiQC8uFxAQO9IlAA+c8jWCUnHuZUV0eQMdinVMkBTyDOA+EgF94rBpQkwx4kgseQEf/DIz6sAhhDLqzK/n/PD7FfGQ5kIgYZxdCMLPqQJTGIGEgMJQYT7XBD3Bf3xiPg1R9WF5yNew7F8dWe8ITQTnhIuE7oINyeKi6SjfByAuiA+sGD+Un/Nj+4NdR0wwNwH6gOlXEmbggccVc4Dwf3gzO7QZY76LcyK6wR2n+L4JsnNGhHcaagFD2KP8V25EgNew23YRVlrr/Nj8rX9OF8c4d7Rs7P/Sb7QtiGj7TElmKHsXPYKewC1ow1ABZ2AmvEWrFjSjy84h4PrLih2WIH/MmBOiPXzNcnq8yk3LnWudv5k6ovXzQzX/kycqdJZ8nEmVn5LA7cMUQsnkTgNJrl4uziCoBy/1F93l7FDOwrCLP1K7fodwB8TvT39//0lQs7AcBBD/hJOPqVs2XDrUUNgPNHBQpZgYrDlRcC/HLQ4dtnAEyABdzfHIELcAfewB8EgTAQBeJBMpgCvc+C61wGZoA5YCEoBqVgFVgPKsBWsANUg33gEGgAzeAU+BlcBJfBdXAHrp5O8Az0gjfgI4IgJISGMBADxBSxQhwQF4SN+CJBSAQSiyQjaUgmIkEUyBxkEVKKrEEqkO1IDXIQOYqcQi4g7cht5AHSjbxEPqAYqo7qoMaoNToGZaMcNByNRyejmeh0tBBdjK5Ay9EqdC9aj55CL6LX0Q70GdqHAUwNY2JmmCPGxrhYFJaCZWAybB5WgpVhVVgd1gSf81WsA+vB3uNEnIGzcEe4gkPxBFyAT8fn4cvxCrwar8fP4FfxB3gv/oVAIxgRHAheBB5hIiGTMINQTCgj7CIcIZyF71In4Q2RSGQSbYge8F1MJmYTZxOXEzcT9xNPEtuJj4h9JBLJgORA8iFFkfikfFIxaSNpL+kE6Qqpk/SOrEY2JbuQg8kpZAm5iFxG3kM+Tr5Cfkr+SNGkWFG8KFEUIWUWZSVlJ6WJconSSflI1aLaUH2o8dRs6kJqObWOepZ6l/pKTU3NXM1TLUZNrLZArVztgNp5tQdq79W11e3Vueqp6gr1Feq71U+q31Z/RaPRrGn+tBRaPm0FrYZ2mnaf9k6DoeGkwdMQaszXqNSo17ii8ZxOoVvROfQp9EJ6Gf0w/RK9R5Oiaa3J1eRrztOs1DyqeVOzT4uhNVYrSitPa7nWHq0LWl3aJG1r7SBtofZi7R3ap7UfMTCGBYPLEDAWMXYyzjI6dYg6Njo8nWydUp19Om06vbrauq66ibozdSt1j+l2MDGmNZPHzGWuZB5i3mB+0DPW4+iJ9Jbp1eld0XurP0rfX1+kX6K/X/+6/gcDlkGQQY7BaoMGg3uGuKG9YYzhDMMthmcNe0bpjPIeJRhVMurQqN+MUCN7o1ij2UY7jFqN+oxNjEOMpcYbjU8b95gwTfxNsk3WmRw36TZlmPqaik3XmZ4w/YOly+KwclnlrDOsXjMjs1Azhdl2szazj+Y25gnmReb7ze9ZUC3YFhkW6yxaLHotTS0nWM6xrLX8zYpixbbKstpgdc7qrbWNdZL1EusG6y4bfRueTaFNrc1dW5qtn+102yrba3ZEO7Zdjt1mu8v2qL2bfZZ9pf0lB9TB3UHssNmhfTRhtOdoyeiq0Tcd1R05jgWOtY4PnJhOEU5FTg1Oz8dYjkkZs3rMuTFfnN2cc513Ot8Zqz02bGzR2KaxL13sXQQulS7XxtHGBY+bP65x3AtXB1eR6xbXW24MtwluS9xa3D67e7jL3Ovcuz0sPdI8NnncZOuwo9nL2ec9CZ4BnvM9mz3fe7l75Xsd8vrL29E7x3uPd9d4m/Gi8TvHP/Ix9+H7bPfp8GX5pvlu8+3wM/Pj+1X5PfS38Bf67/J/yrHjZHP2cp4HOAfIAo4EvOV6cedyTwZigSGBJYFtQdpBCUEVQfeDzYMzg2uDe0PcQmaHnAwlhIaHrg69yTPmCXg1vN4wj7C5YWfC1cPjwivCH0bYR8gimiagE8ImrJ1wN9IqUhLZEAWieFFro+5F20RPj/4phhgTHVMZ8yR2bOyc2HNxjLipcXvi3sQHxK+Mv5Ngm6BIaEmkJ6Ym1iS+TQpMWpPUMXHMxLkTLyYbJouTG1NIKYkpu1L6JgVNWj+pM9UttTj1xmSbyTMnX5hiOCV3yrGp9Kn8qYfTCGlJaXvSPvGj+FX8vnRe+qb0XgFXsEHwTOgvXCfsFvmI1oieZvhkrMnoyvTJXJvZneWXVZbVI+aKK8QvskOzt2a/zYnK2Z3Tn5uUuz+PnJeWd1SiLcmRnJlmMm3mtHapg7RY2jHda/r66b2ycNkuOSKfLG/M14E/+q0KW8V3igcFvgWVBe9mJM44PFNrpmRm6yz7WctmPS0MLvxhNj5bMLtljtmchXMezOXM3T4PmZc+r2W+xfzF8zsXhCyoXkhdmLPw1yLnojVFrxclLWpabLx4weJH34V8V1usUSwrvrnEe8nWpfhS8dK2ZeOWbVz2pURY8kupc2lZ6aflguW/fD/2+/Lv+1dkrGhb6b5yyyriKsmqG6v9Vlev0VpTuObR2glr69ex1pWse71+6voLZa5lWzdQNyg2dJRHlDdutNy4auOniqyK65UBlfs3GW1atuntZuHmK1v8t9RtNd5auvXDNvG2W9tDttdXWVeV7SDuKNjxZGfiznM/sH+o2WW4q3TX592S3R3VsdVnajxqavYY7VlZi9Yqarv3pu69vC9wX2OdY932/cz9pQfAAcWBPw6mHbxxKPxQy2H24bofrX7cdIRxpKQeqZ9V39uQ1dDRmNzYfjTsaEuTd9ORn5x+2t1s1lx5TPfYyuPU44uP958oPNF3Unqy51TmqUctU1vunJ54+tqZmDNtZ8PPnv85+OfT5zjnTpz3Od98wevC0V/YvzRcdL9Y3+rWeuRXt1+PtLm31V/yuNR42fNyU/v49uNX/K6cuhp49edrvGsXr0deb7+RcOPWzdSbHbeEt7pu595+8VvBbx/vLLhLuFtyT/Ne2X2j+1W/2/2+v8O949iDwAetD+Me3nkkePTssfzxp87FT2hPyp6aPq3pculq7g7uvvzHpD86n0mffewp/lPrz03PbZ//+Jf/X629E3s7X8he9L9c/srg1e7Xrq9b+qL77r/Je/Pxbck7g3fV79nvz31I+vD044xPpE/ln+0+N30J/3K3P6+/X8qX8Qd+BTCgPNpkAPByNwC0ZAAY8NxInaQ6Hw4URHWmHUDgP2HVGXKguANQB//pY3rg381NAA7sBMAa6tNTAYimARDvCdBx44br0Flu4NypLER4NtgW9Dk9Lx38m6I6k37j98gWKFVdwcj2X18LgyaXDPIBAAAAbGVYSWZNTQAqAAAACAAEARoABQAAAAEAAAA+ARsABQAAAAEAAABGASgAAwAAAAEAAgAAh2kABAAAAAEAAABOAAAAAAAAAJAAAAABAAAAkAAAAAEAAqACAAQAAAABAAAAqqADAAQAAAABAAAAcgAAAAAM3wPvAAAACXBIWXMAABYlAAAWJQFJUiTwAAARi0lEQVR4Ae1d+XNU15X+pG61Wt3a9w0QyGA2s++LcTAmhEkmJokrU6n5IfO3zExqqqZSUxN7KonHdkzsMRhsEjCxjTHIxgvYAgRiNQitrX3pltSSWi21NN95GBxUWnEv792+p0rV6tev37vv3K/Pvffcc76TME6BFq0Bk2sg0eTt083TGjA0oIGqgWAJDWigWqKbdCM1UDUGLKEBDVRLdJNupAaqxoAlNGC3RCtN2sjxUAih4QDGx0JsYQISbTYkOpKRwFct4dWABupc9Um3s4Az0N2JodYm9N25iRF/LxKTkmFLcSG9/Em4SsuQnJUDmzNlrlfX50+hAQ3UKRQz2WGxnAMtHnirLqD11HEMNNbCnkyApqYhIcmBkZ4ugEBOmbcQhXt+jJz12+DMLSCIkya7nD42Bw0k6J2p2WlrfHQEPdWX0PDOQfRer0JKcSnSl66Ca/5CODKyeZFxBHt7MFBfi/67NxBob0XmU+tR+pNfImvlWm1dZ6fmKc/SQJ1SNd99ICBt/eQU6g7+Dw+OI2vdFmSu3ggb56OTyeiAH77rl+Gr+hpJGZkoPfDPyN/2DOyu1MlO18dmoQEN1BmUNB4ahYfD/N2XfmNYz/xdP4SbQ/tspL/2Drq+PIux4DDmvfBrFO/aB5vLPZuv6nMmaEDPUSco5JG3Y2MGSO/87l+R9sRSFO59HsnZuY+cMt2btEVLOOQ70XnuNBrffg02uwMFTz8HW7Jzuq/pzybRgPajTqIU4xAXRe3nP0HNH/4T7oWLUfSjn88JpA8u6yqej7xdewnOFDQc+RO8nN+KldYyNw1ooE6hL+/Nq6h97b/hyMlF8b6fccGUNcWZMx92Fc1DPi1paKAf9YdexhAXWuId0DJ7DWigTqKrYK8X9W+9jBG+Fu7+ByTn5E1y1twOuReUI++Zvej/5ibucVE2Ghia2wXi/GwN1AkAkGG5nkO0r/oicnc+BxcBFi7JWLYGeTv3cM76ERqPH9JWdQ6K1UCdoKy2z8+g/aPjyFy1gX7QdUhMDJ+KEhISkL1hG9KWLIfnndchXgEts9NA+Hphdvcz9VmBrg40v3cYNncqcjZs546SI+ztFd+ruLjGgiO4/eK/QXy0WmbWgAbqtzqSAJP6o6/BX3MbOVufQVJ2DsQCRkKc+UUo2n8AvdWXUXf0oJ4CzELJGqjfKqn78gXu4Vdyx2kTUhcuYSRUZF3M6UtXI3XJMniOvYGhzrZZdFV8n6KByv6XaKiWU8cw2u/j/v1TRhRUpGGRaLejmL7ZkV4fbv/u378NFYz0Xa17fQ1U+jNbPj5pBJpkc17qLCiK2JA/ESbi9srfvR++q5Xw3rgy8WP9/u80EPdADfb50P3Vp8YevGvBoikDTf5OZ2H9N3vtZsZcJ+Du7/8DYyPBsF5bpYvFNVCFe6PpxNuMdKpC1vqtcOYVRb1vJUil5Kf/hMGmRnjoFtMyuQbiGqgDzQ0E6UWk0qnvnrfISCWZXE2ROyqeBfe8MiSlZ8Dz7p8xOuiP3M0sfOW4BaoRvnfiEPpuXOXqezkcTB2JldhS3Ch9/lcY7mhDzcGX2AwdBzCxL+IWqH337sDPv6x1m5FWvjRqC6iJHSDvxaqKRZVsAe/FLxH0+SY7La6PxSVQx4JBtJ09yZSRW0wpmcfI+9gHM9vdaSigByDQ2XHfqjIWVst3GohLoPbevWlkj2au3oDUJ5Z9p40Y/2dPTUdq+RJOR65gqIOhgFoeaiDugBoaGkTHF2eYhFcDV8l82J2uh8qI9T9JBGru5qcx3NWGusOvMsBa+AK0iAbiC6h0RxnW9EYVMpatQtri5aZDgZ0B2qmLl6H/znX4mY6t5b4G4gqoo4MD6K78AkPNjcbCxYy5S460DGSt2ojhznY0MWZ1bERHVwlU4weotKZ9925zu/Jrwx1lRmv6wHo6svMMq+qvuYX+Oh2zGldAFWvac6WSNDweuGOwVfoAhLN5TUpLR/qTKw2r2nrmpLaqVFp8WFRaU3/DPXgvfQlXWTlTn803N50I4OTcQqOt/d/c0FY1XoA6ypW+99olzk0bkCq59hbIq3eQYSV98QoMtzejg+kx8R6wor5FpTUd8DSgizn6KaULjM6faL3M+t5ZWIyUkgXovVlFq3rXrM2MSruUB2qIacnCAzXUVGcsoqxEBenIzOaiaikCLU2GtyKePQBqA5XWdLDNg45PPkQyrZMMpVaTlOIFDOYuge9apTHPtlr7w9VepYEaIjmZ7/Z1zk3rkU4Hv51Eu1YTsapuzqsHG+vQQ9davGatKg3UAJ3mbR8cY0ZpPtKXrLQaRo32GvGq88vhICGw78rX8HO+HY+iLFBlldxHh7mwQmesWGOKCKnHBZiDqdtugtV/75Yx3x4fjT+SNWWBOuztQfOJw3BkZiFj+arHxYgpvidWNY2LKgnu9nL4H2xvMUW7otkIJYEqUUf++rvw135Da7pOCaZnB3lZnSVl6L12me6qK3EXWaUkUEf8feQifQ0SjJy5en00f/gRu1dCQiIyl68m1XoWrepFVmXpiNi9zHhh9YDKyHg/V8iy9Zi+Yq0S1vQBcCRYxUmuVUnv9t2+RtKK+MkCUA6o4pKq+/NLdEW5kbtx+4M+VuI1gcyCWWQZtDMU0FddiaC3W4nnms1DKAfUgaZ6sp5cQfrKNVGh5pmNksN5TnJuPpyFJeg4+4ERBI44sapqAZU7UXdf+S0SWTEvf/uecOLDNNcSq5pDjlU7QwF9XFgF+3tN07ZINkQpoA60NDKU7yu6o1YjkRX1VJXkvEIk5xeSy/Xt+2TA/IGqLkoB9faLvzHK5RQ+949K95v4VXO3kMM1NRU+5n+NsACb6qIMUGVrsefCOa7010AoHVWXlIJiOPOL0XjkdQwwMkz1KitKAFXcNDUv/5aLJyeK9h1QHaMPn0+YsaVocA+LCEtwuMqiBFAlqLj7fAUypD5pBHj3zQoA4SVwMrC6kVVcBjk/V9mqWh6oEqBR+8bvudKnNWUJyHiT3G0/MGjcOy98CgkSV1UsD1QhlPBWfs5yO1LtOfxVTMze8S5yZ6WQtrLp6OusCMhgFUU9AJYGqoTy1bMYbgLnaVISJ14ld9tug7W6jZkMqiYBWhqo3ltXjWDizJXrjaE/XoEqVlUKC3uOvalsCKBlgRoKBOD5y1tcPCUhZ8vTrLBni1ecGs+du323Qf/b/P5RpquoF1htWaB2X/2Ke/qXkc4ykBKAEu/iKixlXthKNB9/m+kq9KsqJpYE6oi/n9H7R5DIco1Za7ewFGSSYt3yeI+Tt+1ZJNiTWGqdlJWKla60HlC5qu1kPKbkD2XSb2pPTXu8XlXwW1K3KovlgNrPvg8f43FVEssBNejrQevpE0ZdKKPKXhw5+GcDvNytu4xExrr/+6NRkXA237HCOdYCKq1p22enMdR4z6hZKqx3Wh7VgMFazYWVFK3o5taqKmIpoA6SMrLj3EewZ5Dqhu6YSJQpV6Fjs9dtZcZqNhreegUyn1dBLANU4V1qZmW7IU89Mp5ab5S7UaEDIvEMNm4n5/9gH/rJa+D58JgSu1WWAWrfnRvcKv0MKazFJJX2Erm61TK1BtLIDCN1q1rff0eJTQBLAHV0oB/CvCwLqYyl5JBicpuW6TUg06L8p/ci2NV5311l8QorlgBqJwtEeLkwSCNduLu0jLtQlmj29EiK8KeSBZBSVMrQxw3oqTzH9OrqCN8xspc3fY8HutpJwlthBF2ksXhZogUZ+SLbhVNfXZz/WWs3GTUAGg79L0KsY2BVMTVQZc+6VZzXly+wLtRqWoh5Ma1ZarVOFquaTNKK3J170HfrmqUXVqYGqgxX3V9UkNK8zBj29Vbp3H8qsuhMW/QkHMxabfv4Pfglv8qCYlqgBnu9kPjKQLuHwRZPxbRMuQX79ZEmC19V/vZnWbqoGbVvvoxQMPDI51Z4Y0qgChtfx5cV6KJzX7JKxdUiw5iWx9OA6M7JhVUO66z23biEtnOnH+9CMfyWKYEqyXrtn36AJAZZCG1kPKQ/RxoDUrJIOFYT7Q76Vt9lMmBTpG8Z1uubDqhG0MmZ98jGd9NginZybqUlPBoQHoDcXXsN3tjaN/+I0QHreAFMBdTQcMAIOmn927vIov8vk8x1WsKnAZkCyK5ezuZd8FWdR/Opv1gmG8A0QB0fC8HHHKhmVlR2zV+E7I074j69JHwQ/e5KMgWQ8EhHTgE6Kt5HD7MkrMAIaA6gMnxvsMWDZu5Li1M6m7ymDq5UtURGA868AmSREXC4u51Ea4dZi6vZ9IErsQcqQTrs7UIzo3x6vv7ciFBPK38yMj2kr/pQAxImmb1pF2sCVKHpxCH2gblJgWPOJiZMdC1n/oYWUijKnDR7g1os0Q+RYbJ/Em027vatwkhvDzo/O4OkrDzM2/9zmDUYPaYWNTQ8jM4Ln8DzzkGkch8/b8cenagXRUDb3anIWrOZDNbFaD99nH1hXlqgmAF1PDTKVInzqHvzD/w15yB/53OsYpIaxW7StxINSEJgzqadzF61o/nkEXSzjpUYELNJTIA6Pj5GkH6F2j+9CNlvEjoe4abXEhsNCCtgzpZdCHIa0HTsDYMcOBQMxqYxU9w1+nNULp66L55Hzav/hRDnp/l7fgz3vIVTNE8fjpYG0sqXYpxcXp2ffoT6I6+ijP2USXIPG7kTzCAJ45RoNcTYw+c8qPb1FzFG4tn83ftZTNd6pcmjpa9o30cIkfsYsdbJWAApGz//hX9BDgk+zMCSGDWgSv2ntooPUH/4FcNnl79rH9IXL4t2X+j7zaABmZb1sXR852cfs45sNkoO/AoFZAuUjYJYSlSAKoW7PKf+ihYW0U1iEd08ltZxL1gUy+fW955GAzLI9t+7jS7GArM8IAp/+DxKf/QzFreIHY9CxIHay+zR5pNH0U03VEpZOXK5zyyFErSYXwMDTE2XTZhAaxNyaFUXvPBruFiMLRYSMaCOciu0/fMzaKN/btDIxV/H8ogbjeEkFg+q7/l4Ghju7oSX5Sz7b1UjhQEtxXsPoGDHs1H3d4cdqPeDS6rJD/Uei5Odh421kLLWbIKsKm2sqKfFehoQozPQcI9JlmfpGQghe/MOTgV+wT6N3lZ3+IDKeY2flrOt4kMO8xUY8XmNPKd0btM5OdTLlp0W62pgjB6BAGsE9N64gv7rVfQKFCFn624UPbuf04HSiD/Y9waquJykIFcb00Z6mH8f7GpjSZn5LPO4Bi6WlrG53DqNJOLdGL0bjNL3LdkBvquVCDQ3PExxkZ1F8YdHKmXosYE60t8HL2MZOzkP7b11xQjPk6rHGSuY1ly8gLyl6dqKRg8/Ub2TuLBGen1MFvSgt/oSAm0eg7hOatDm7diNTBqpcHsIZg9UNm6Yw7nU3uzh9mcvX4OcaMsesbtssTHMS9qI7Ncn2qK/4RXVntI3MzQwxtF0lGyBQhLSz42CwYYajAVHjILC6SvWIpubBZkM0k5mLAdN7ffS2rRAlSS7PvrT/LXfwH/nJgY5xEvAgiTbOYvnMzt0GdwlZQbrs5TQifeCD9+rJyz8ZZm/jrEY26i/DwOcDvjv3DKsrJQSsnPql1K6gImFKyBMNxIHK1Vc5ro1Oy1QK36yGRLlJNQwEjQiwQuusieQwiFedirkuM4QtTDCwtx02SiQNYvEDIwSuLL4GqivwRDLX8roa1RrYfUaqd+axFLuKUUlhl+9ZO9PZ7S4047RBVzRObmiS87ONYb4BCEn4400SVmYe1iRy8lCSqaC4J+NHGFCfJH2BINdaHHHyW873NNJS9uMQGcbgj1d6LtZjWSmxQAE6gwyrUX189fwfecWM9xffxxvGhCrK8/MVxHJjRNDOJNMC9SZvqw/1xqIlgZiEjgdrYfT91FHAxqo6vSl0k+igap096rzcBqo6vSl0k+igap096rzcBqo6vSl0k+igap096rzcBqo6vSl0k+igap096rzcBqo6vSl0k+igap096rzcBqo6vSl0k/y//hjMSooe8G7AAAAAElFTkSuQmCC;" vertex="1" parent="1">
          <mxGeometry x="358.62" y="234.99" width="57.77" height="38.73" as="geometry" />
        </mxCell>
        <mxCell id="XGQdO2VJRoyWXTCaJZEM-176" style="edgeStyle=orthogonalEdgeStyle;rounded=0;orthogonalLoop=1;jettySize=auto;html=1;exitX=0.75;exitY=0;exitDx=0;exitDy=0;entryX=0.298;entryY=0.978;entryDx=0;entryDy=0;entryPerimeter=0;fontFamily=Helvetica;fontSize=12;fontColor=default;resizable=1;dashed=1;dashPattern=12 12;" edge="1" parent="1">
          <mxGeometry relative="1" as="geometry">
            <mxPoint x="520.3" y="325.99" as="sourcePoint" />
            <mxPoint x="519.9999999999998" y="179.33999999999992" as="targetPoint" />
          </mxGeometry>
        </mxCell>
        <mxCell id="XGQdO2VJRoyWXTCaJZEM-179" value="z&lt;sub&gt;-i&lt;/sub&gt;" style="text;html=1;align=center;verticalAlign=middle;whiteSpace=wrap;rounded=0;fontFamily=Helvetica;fontSize=12;fontColor=default;resizable=1;" vertex="1" parent="1">
          <mxGeometry x="372.5" y="163" width="30" height="25" as="geometry" />
        </mxCell>
        <mxCell id="XGQdO2VJRoyWXTCaJZEM-181" value="Sample" style="text;html=1;align=center;verticalAlign=middle;whiteSpace=wrap;rounded=0;fontFamily=Helvetica;fontSize=12;fontColor=default;resizable=1;" vertex="1" parent="1">
          <mxGeometry x="383" y="198.26" width="60" height="30" as="geometry" />
        </mxCell>
        <mxCell id="XGQdO2VJRoyWXTCaJZEM-183" value="a&lt;sub&gt;i&lt;/sub&gt;" style="rounded=1;whiteSpace=wrap;html=1;fillColor=#ffffd9;" vertex="1" parent="1">
          <mxGeometry x="479" y="77.5" width="60" height="30" as="geometry" />
        </mxCell>
        <mxCell id="XGQdO2VJRoyWXTCaJZEM-185" style="edgeStyle=orthogonalEdgeStyle;rounded=0;orthogonalLoop=1;jettySize=auto;html=1;exitX=0.5;exitY=1;exitDx=0;exitDy=0;entryX=0.2;entryY=-0.044;entryDx=0;entryDy=0;entryPerimeter=0;fontFamily=Helvetica;fontSize=12;fontColor=default;resizable=1;" edge="1" parent="1" source="XGQdO2VJRoyWXTCaJZEM-183" target="XGQdO2VJRoyWXTCaJZEM-158">
          <mxGeometry relative="1" as="geometry" />
        </mxCell>
        <mxCell id="XGQdO2VJRoyWXTCaJZEM-186" value="a&lt;sub&gt;j&lt;/sub&gt;" style="rounded=1;whiteSpace=wrap;html=1;fillColor=#ffffd9;" vertex="1" parent="1">
          <mxGeometry x="569" y="77.5" width="60" height="30" as="geometry" />
        </mxCell>
        <mxCell id="XGQdO2VJRoyWXTCaJZEM-187" style="edgeStyle=orthogonalEdgeStyle;rounded=0;orthogonalLoop=1;jettySize=auto;html=1;exitX=0.5;exitY=1;exitDx=0;exitDy=0;entryX=0.8;entryY=-0.044;entryDx=0;entryDy=0;entryPerimeter=0;fontFamily=Helvetica;fontSize=12;fontColor=default;resizable=1;" edge="1" parent="1" source="XGQdO2VJRoyWXTCaJZEM-186" target="XGQdO2VJRoyWXTCaJZEM-158">
          <mxGeometry relative="1" as="geometry" />
        </mxCell>
      </root>
    </mxGraphModel>
  </diagram>
</mxfile>
